<svg width="465" height="239" viewBox="0 0 465 239" fill="none" xmlns="http://www.w3.org/2000/svg">
<path d="M102.107 1.0878C101.04 2.02113 97.3069 6.6878 93.8402 11.6211C90.3736 16.6878 87.0402 20.6878 86.5069 20.6878C85.9736 20.6878 84.5069 22.5545 83.0402 24.9545L80.6402 29.2211L84.5069 26.4211C86.6402 24.9545 89.0402 23.4878 89.7069 23.3545C90.5069 23.0878 94.9069 18.6878 99.7069 13.6211C105.174 7.75446 107.174 4.82113 105.04 6.02113C103.174 6.95446 99.5736 9.8878 97.0402 12.5545C91.7069 18.2878 93.0402 15.7545 99.7069 8.02113C102.24 5.0878 104.774 2.82113 105.307 2.95446C106.774 3.4878 106.64 1.0878 105.174 0.154462C104.64 -0.245538 103.174 0.154462 102.107 1.0878Z" fill="#F4F4F4"/>
<path d="M62.3736 3.35447C62.3736 4.02114 63.0402 4.68781 63.8402 4.68781C64.5069 4.68781 64.7736 4.02114 64.3736 3.35447C63.9736 2.55447 63.3069 2.02114 62.9069 2.02114C62.6402 2.02114 62.3736 2.55447 62.3736 3.35447Z" fill="#F4F4F4"/>
<path d="M51.0402 6.95447C50.6402 8.95447 49.0402 12.1545 47.5736 14.1545C46.2402 16.1545 45.0402 18.6878 45.0402 19.8878C45.0402 22.2878 45.3069 22.4211 48.2402 21.2211C49.8402 20.5545 50.1069 19.8878 49.0402 18.6878C47.9736 17.4878 48.3736 16.8211 50.5069 16.2878C51.9736 15.8878 52.9069 14.9545 52.5069 14.2878C52.1069 13.4878 52.7736 13.2211 54.3736 13.6211C57.5736 14.4211 57.9736 11.6211 54.9069 10.4211C53.5736 9.8878 53.3069 9.35447 54.3736 8.6878C55.8402 7.75447 54.7736 3.35447 53.0402 3.35447C52.5069 3.35447 51.5736 4.95447 51.0402 6.95447Z" fill="#F4F4F4"/>
<path d="M161.174 6.6878C161.174 9.0878 164.64 14.4211 165.44 13.2211C165.84 12.5545 165.04 10.4211 163.574 8.6878C162.24 6.82114 161.174 5.8878 161.174 6.6878Z" fill="#F4F4F4"/>
<path d="M70.6402 8.02115C70.6402 8.68781 71.4402 11.4878 72.3736 14.0211C73.3069 16.5545 74.2402 17.7545 74.2402 16.6878C74.2402 15.6211 73.4402 12.8211 72.3736 10.6878C71.4402 8.42115 70.6402 7.22115 70.6402 8.02115Z" fill="#F4F4F4"/>
<path d="M83.7069 9.88783C83.0402 11.3545 82.3736 13.6212 82.3736 14.8212C82.3736 16.9545 82.6402 16.9545 84.2402 15.3545C86.7736 12.6878 88.2402 7.35449 86.5069 7.35449C85.7069 7.35449 84.5069 8.55449 83.7069 9.88783Z" fill="#F4F4F4"/>
<path d="M167.04 11.2211C167.04 13.7545 167.44 14.8211 168.374 13.8878C169.174 13.0878 170.24 13.7545 171.307 15.6211C172.907 18.5545 172.907 18.5545 173.04 14.2878C173.04 11.8878 172.507 10.1545 171.84 10.5545C171.174 10.9545 170.374 10.4211 169.84 9.35448C168.64 6.02115 167.04 7.08782 167.04 11.2211Z" fill="#F4F4F4"/>
<path d="M158.374 9.35449C158.374 10.0212 159.04 11.6212 159.707 12.6878C160.374 13.7545 161.04 14.0212 161.04 13.3545C161.04 12.5545 160.374 11.0878 159.707 10.0212C159.04 8.95449 158.374 8.55449 158.374 9.35449Z" fill="#F4F4F4"/>
<path d="M204.24 11.8878C202.64 12.6878 200.374 14.1545 199.307 15.0878C197.974 16.2878 197.04 16.4211 196.374 15.3545C194.774 12.8211 191.974 14.0211 189.04 18.8211C187.44 21.3545 186.374 23.8878 186.907 24.2878C187.307 24.6878 186.107 27.0878 184.24 29.6211C179.974 35.2211 181.04 35.3545 186.24 29.6211C190.24 25.4878 191.707 22.2878 189.04 24.0211C186.774 25.3545 187.574 22.4211 189.974 20.5545C191.44 19.2211 191.84 19.2211 191.174 20.2878C190.507 21.4878 191.174 22.0211 193.04 22.0211C194.64 22.0211 195.574 21.4878 195.04 20.8211C194.64 20.1545 194.907 19.2211 195.574 18.8211C197.04 17.8878 196.774 20.5545 195.174 23.0878C192.907 26.6878 195.84 26.2878 199.174 22.5545C201.174 20.4211 204.507 16.6878 206.774 14.2878C210.907 9.8878 209.707 8.82113 204.24 11.8878Z" fill="#F4F4F4"/>
<path d="M177.307 19.3545C177.307 22.2878 176.774 25.2212 176.374 26.0212C175.974 26.6878 175.84 27.3545 176.24 27.3545C177.707 27.3545 180.64 18.6878 179.974 16.2878C178.907 12.1545 177.307 13.8878 177.307 19.3545Z" fill="#F4F4F4"/>
<path d="M52.6402 17.2211C51.7069 19.7545 53.1736 20.8211 55.4402 19.4878C56.7736 18.6878 56.7736 18.1545 55.3069 16.8211C53.7069 15.6211 53.1736 15.7545 52.6402 17.2211Z" fill="#F4F4F4"/>
<path d="M208.507 18.6878C207.04 19.7545 206.107 20.9545 206.507 21.2211C206.774 21.6211 208.507 20.6878 210.374 19.3545C212.24 17.8878 213.174 16.6878 212.374 16.8211C211.707 16.8211 209.84 17.6211 208.507 18.6878Z" fill="#F4F4F4"/>
<path d="M75.1736 20.0212C74.7736 21.0878 75.0402 22.0212 75.7069 22.0212C76.3736 22.0212 77.1736 23.0878 77.4402 24.2878C77.8402 25.8878 78.1069 25.3545 78.2402 23.0878C78.3736 19.0878 76.3736 16.9545 75.1736 20.0212Z" fill="#F4F4F4"/>
<path d="M64.5069 23.0878C67.4402 27.6211 65.7069 28.4211 61.8402 24.2878C59.9736 22.2878 57.8402 20.6878 57.0402 20.6878C56.2402 20.6878 57.4402 22.2878 59.7069 24.1545C64.6402 28.2878 64.1069 29.8878 58.9069 26.5545C56.9069 25.2211 54.6402 24.0211 53.8402 23.8878C53.0402 23.7545 51.1736 23.2211 49.7069 22.6878C47.5736 21.8878 47.7069 22.2878 50.3736 24.5545C52.2402 26.0211 54.5069 27.3545 55.4402 27.3545C56.3736 27.3545 59.0402 28.2878 61.3069 29.4878C63.4402 30.6878 64.9069 30.9545 64.5069 30.2878C63.3069 28.4211 67.1736 27.3545 68.9069 29.0878C71.4402 31.6211 70.5069 28.6878 67.7069 25.0878C66.2402 23.2211 65.3069 21.2211 65.7069 20.6878C65.9736 20.2878 65.4402 19.7545 64.3736 19.7545C62.6402 19.7545 62.6402 20.2878 64.5069 23.0878Z" fill="#F4F4F4"/>
<path d="M133.04 20.6878C133.04 21.3545 133.707 22.0211 134.374 22.0211C135.174 22.0211 135.707 21.3545 135.707 20.6878C135.707 19.8878 135.174 19.3545 134.374 19.3545C133.707 19.3545 133.04 19.8878 133.04 20.6878Z" fill="#F4F4F4"/>
<path d="M141.174 21.0878C140.107 22.4211 140.24 22.9545 141.44 22.9545C142.507 22.9545 143.307 22.1545 143.307 21.0878C143.307 20.1545 143.174 19.3545 143.04 19.3545C142.774 19.3545 141.974 20.1545 141.174 21.0878Z" fill="#F4F4F4"/>
<path d="M96.9069 22.9545C95.1736 25.0878 95.3069 25.2212 97.4402 23.4878C98.6402 22.5545 99.7069 21.4878 99.7069 21.2212C99.7069 20.1545 98.6402 20.8212 96.9069 22.9545Z" fill="#F4F4F4"/>
<path d="M41.8402 24.2878C41.0402 26.1545 41.1736 26.2878 42.5069 25.0878C43.4402 24.1545 43.8402 23.0878 43.4402 22.6878C43.0402 22.2878 42.2402 22.9545 41.8402 24.2878Z" fill="#F4F4F4"/>
<path d="M128.64 22.9545C127.04 24.5545 127.707 25.7545 130.774 26.4212C133.44 27.2212 133.574 27.0878 131.307 25.4878C129.44 24.0212 129.307 23.4878 130.64 22.9545C131.574 22.5545 131.707 22.1545 130.907 22.1545C130.107 22.0212 129.04 22.4212 128.64 22.9545Z" fill="#F4F4F4"/>
<path d="M206.374 26.0211C197.574 30.6878 197.974 30.9545 207.707 27.3545C211.707 25.8878 215.174 24.6878 215.307 24.6878C215.574 24.6878 215.707 24.0211 215.707 23.3545C215.707 21.3545 214.507 21.7545 206.374 26.0211Z" fill="#F4F4F4"/>
<path d="M208.107 29.6212C206.374 29.8878 205.04 30.6878 205.04 31.3545C205.04 32.8212 213.174 31.4878 215.04 29.8878C216.24 28.6878 213.574 28.5545 208.107 29.6212Z" fill="#F4F4F4"/>
<path d="M55.7069 31.3545C57.4402 32.5545 57.4402 32.6878 55.7069 32.8212C49.0402 33.3545 42.3736 33.2212 42.3736 32.6878C42.3736 32.0212 36.2402 31.8878 34.3736 32.5545C33.9736 32.6878 36.1069 34.0212 39.0402 35.6212C42.2402 37.3545 44.3736 37.8878 44.7736 36.9545C45.0402 36.1545 45.9736 35.7545 46.7736 36.0212C50.7736 37.2212 73.0402 37.7545 72.3736 36.6878C71.8402 35.8878 70.3736 35.3545 69.0402 35.3545C67.7069 35.3545 66.2402 34.8212 65.7069 34.0212C65.3069 33.3545 64.1069 33.0878 63.1736 33.4878C62.2402 33.8878 60.6402 33.2212 59.7069 32.0212C58.7736 30.9545 57.0402 30.0212 55.8402 30.0212C53.9736 30.0212 53.9736 30.2878 55.7069 31.3545Z" fill="#F4F4F4"/>
<path d="M176.774 33.3545C177.04 35.2212 177.84 37.0878 178.507 37.4878C179.84 38.2878 179.974 37.2212 178.907 32.9545C177.707 28.9545 175.974 29.2212 176.774 33.3545Z" fill="#F4F4F4"/>
<path d="M77.3069 34.2878C77.8402 38.1545 82.3735 39.3545 82.3735 35.6212C82.3735 34.1545 81.4402 32.5545 80.2402 32.1545C77.0402 30.9545 76.7735 31.0878 77.3069 34.2878Z" fill="#F4F4F4"/>
<path d="M123.707 32.9545C123.84 33.8878 124.64 36.1545 125.707 38.0211C126.774 39.8878 127.574 42.6878 127.707 44.4211C127.707 46.5545 128.24 47.2211 129.44 46.4211C130.24 45.8878 133.04 45.2211 135.574 45.0878C141.174 44.6878 141.44 44.4211 139.84 40.2878C138.64 37.3545 138.907 37.0878 141.174 37.6211C142.507 38.0211 143.707 37.7545 143.707 36.9545C143.707 36.2878 139.84 34.6878 135.04 33.4878C124.774 30.9545 123.707 30.8211 123.707 32.9545Z" fill="#F4F4F4"/>
<path d="M168.907 35.0878C171.707 39.2211 174.374 40.6878 174.374 38.2878C174.374 37.0878 171.04 33.8878 167.84 32.0211C166.64 31.3545 167.174 32.8211 168.907 35.0878Z" fill="#F4F4F4"/>
<path d="M73.9735 38.6878C73.3069 40.1545 73.9735 40.6878 76.1069 40.6878C77.7069 40.6878 78.5069 40.1545 77.7069 39.6211C77.0402 39.0878 75.9735 38.1545 75.5735 37.6211C75.0402 37.0878 74.3735 37.4878 73.9735 38.6878Z" fill="#F4F4F4"/>
<path d="M82.5069 38.5545C80.9069 40.5545 81.0402 43.8878 83.5736 58.6878C84.3736 63.0878 85.0402 66.9545 85.0402 67.3545C85.1736 67.7545 85.9736 66.1545 87.0402 64.0211L88.9069 60.0211L88.2402 64.0211C87.7069 67.0878 87.8402 67.6211 88.9069 66.0211C90.2402 64.2878 90.5069 64.2878 91.7069 66.0211C94.6402 70.5545 92.7736 64.0211 88.5069 54.5545C85.9736 49.0878 84.5069 44.6878 85.1736 44.6878C85.9736 44.6878 86.2402 44.1545 85.8402 43.4878C85.3069 42.8211 85.5736 42.0211 86.2402 41.7545C86.9069 41.6211 86.7736 40.2878 85.8402 38.9545C84.2402 36.9545 83.8402 36.9545 82.5069 38.5545Z" fill="#F4F4F4"/>
<path d="M178.774 40.2878C179.307 40.6878 178.774 42.2878 177.44 43.6212C175.44 45.8878 175.44 46.2878 177.974 49.0878C179.44 50.6878 181.04 52.9545 181.574 54.0212C181.974 55.0878 181.974 54.0212 181.574 51.4878C181.04 48.4212 181.174 47.3545 182.24 47.8878C184.24 49.2212 184.107 46.9545 182.107 44.8212C180.64 43.3545 180.907 43.3545 183.707 44.6878L187.04 46.4212L183.84 42.8212C181.974 40.9545 179.974 39.3545 179.307 39.3545C178.507 39.3545 178.374 39.7545 178.774 40.2878Z" fill="#F4F4F4"/>
<path d="M199.44 41.6212C200.24 41.8878 201.84 41.8878 202.774 41.6212C203.574 41.2212 202.907 40.9545 201.04 40.9545C199.174 40.9545 198.507 41.2212 199.44 41.6212Z" fill="#F4F4F4"/>
<path d="M205.974 43.3545C206.64 45.7545 206.374 45.8878 203.174 44.6878C198.374 42.9545 197.84 42.9545 200.24 45.3545C201.307 46.4211 203.574 47.3545 205.307 47.3545C207.04 47.3545 209.707 48.2878 211.174 49.3545C215.174 52.2878 217.974 52.0211 215.174 48.8211C213.84 47.3545 211.84 46.5545 210.64 46.9545C208.907 47.4878 208.907 47.2211 210.907 45.7545C212.64 44.4211 212.907 43.4878 211.974 42.8211C211.04 42.2878 210.374 42.6878 210.374 43.6211C210.24 44.8211 209.707 44.5545 208.507 42.9545C206.107 39.8878 205.174 40.0211 205.974 43.3545Z" fill="#F4F4F4"/>
<path d="M92.5069 43.8878C92.9069 45.0878 94.3736 46.0212 95.7069 46.0212C100.24 46.0212 106.64 48.9545 105.174 50.4212C104.374 51.2212 103.174 51.3545 101.974 50.5545C99.8402 49.0878 104.24 52.8212 109.707 56.9545C111.84 58.6878 113.174 59.2212 112.64 58.2878C111.974 57.3545 112.24 56.6878 113.574 56.6878C115.44 56.6878 116.24 58.1545 115.974 60.8212C115.84 61.3545 117.574 61.4878 119.707 61.2212C122.64 60.8212 123.974 61.4878 125.04 63.4878C126.374 65.8878 129.04 65.8878 129.04 63.3545C129.04 61.4878 124.907 57.8878 123.707 58.6878C123.174 59.0878 122.24 58.4212 121.84 57.3545C121.174 55.6212 121.574 55.4878 123.84 56.6878C125.307 57.4878 127.174 58.0212 127.974 57.7545C128.774 57.4878 126.907 56.2878 123.707 55.0878C119.574 53.3545 118.374 53.2212 118.774 54.5545C119.307 55.7545 118.24 55.6212 115.04 54.1545C112.64 52.9545 110.907 51.6212 111.174 51.0878C111.707 50.2878 100.374 44.5545 94.5069 42.6878C92.3736 42.0212 91.8402 42.2878 92.5069 43.8878ZM109.707 53.4878L111.974 57.0878L108.64 54.5545C106.774 53.0878 105.574 51.6212 105.974 50.9545C106.907 49.4878 107.174 49.7545 109.707 53.4878Z" fill="#F4F4F4"/>
<path d="M156.107 42.8211C155.174 43.2211 154.907 44.4211 155.307 45.4878C155.707 46.5545 155.44 47.3545 154.64 47.3545C153.84 47.3545 152.907 46.5545 152.64 45.6211C152.107 44.4211 151.84 44.4211 151.84 45.6211C151.707 46.4211 152.24 47.4878 152.907 47.8878C154.774 49.0878 158.374 47.3545 158.374 45.3545C158.374 44.4211 159.174 43.2211 160.107 42.9545C161.174 42.4211 161.04 42.2878 159.707 42.2878C158.64 42.2878 157.04 42.5545 156.107 42.8211Z" fill="#F4F4F4"/>
<path d="M171.04 43.3545C171.44 44.0211 172.107 44.6878 172.507 44.6878C172.774 44.6878 173.04 44.0211 173.04 43.3545C173.04 42.5545 172.374 42.0211 171.574 42.0211C170.907 42.0211 170.64 42.5545 171.04 43.3545Z" fill="#F4F4F4"/>
<path d="M192.374 43.3545C191.974 44.0211 192.774 44.6878 194.24 44.6878C195.84 44.6878 197.04 44.0211 197.04 43.3545C197.04 42.5545 196.24 42.0211 195.174 42.0211C194.107 42.0211 192.774 42.5545 192.374 43.3545Z" fill="#F4F4F4"/>
<path d="M49.7069 46.9545C44.6402 48.0211 40.1069 49.2211 39.9735 49.3545C39.7069 49.6211 40.5069 51.6211 41.8402 53.8878C44.1069 57.7545 44.2402 57.7545 48.2402 55.7545C50.5069 54.5545 53.3069 52.5545 54.5069 51.2211C55.7069 49.7545 57.1736 48.6878 57.8402 48.6878C58.5069 48.6878 60.2402 47.7545 61.5736 46.6878C64.2402 44.6878 64.2402 44.6878 61.5736 44.8211C60.2402 44.9545 54.9069 45.8878 49.7069 46.9545ZM49.0402 50.0211C47.9735 50.6878 46.5069 51.3545 45.7069 51.3545C45.0402 51.3545 45.3069 50.6878 46.3735 50.0211C47.4402 49.3545 49.0402 48.6878 49.7069 48.6878C50.5069 48.6878 50.1069 49.3545 49.0402 50.0211Z" fill="#F4F4F4"/>
<path d="M75.8402 46.8211C75.8402 48.2878 76.2402 48.6878 76.6402 47.6211C77.0402 46.6878 76.9069 45.4878 76.5069 45.0878C76.1069 44.5545 75.7069 45.3545 75.8402 46.8211Z" fill="#F4F4F4"/>
<path d="M78.7736 51.3545C78.7736 55.3545 79.0402 57.0878 79.3069 54.9545C79.5736 52.9545 79.5736 49.7545 79.3069 47.6211C79.0402 45.6211 78.7736 47.3545 78.7736 51.3545Z" fill="#F4F4F4"/>
<path d="M96.3736 51.8878C99.3069 54.4211 102.507 56.5545 103.44 56.6878C105.574 56.6878 99.0402 51.0878 94.3735 48.8211C92.1069 47.6211 92.6402 48.5545 96.3736 51.8878Z" fill="#F4F4F4"/>
<path d="M134.107 49.6212C134.907 49.8878 136.507 49.8878 137.44 49.6212C138.24 49.2212 137.574 48.9545 135.707 48.9545C133.84 48.9545 133.174 49.2212 134.107 49.6212Z" fill="#F4F4F4"/>
<path d="M186.774 49.6212C185.44 50.1545 185.44 50.9545 186.507 52.9545C187.84 55.3545 187.707 55.6212 185.84 54.9545C184.64 54.4212 183.707 54.2878 183.707 54.5545C183.707 56.1545 188.107 63.3545 189.174 63.3545C189.84 63.3545 190.374 64.5545 190.374 66.1545C190.374 67.6212 191.04 70.1545 191.84 71.6212C192.907 73.6212 192.907 74.1545 191.84 73.4878C191.04 72.9545 190.374 73.3545 190.24 74.2878C190.24 75.2212 189.307 73.6212 188.24 70.6878C187.174 67.7545 185.974 64.5545 185.707 63.4878C185.307 62.4212 184.64 61.8878 184.374 62.2878C183.44 63.2212 189.174 79.4878 190.24 78.8212C190.774 78.4212 191.307 79.3545 191.307 80.8212C191.44 82.1545 190.907 83.3545 190.24 83.3545C186.24 83.3545 188.107 88.1545 195.84 97.3545C207.84 111.621 211.174 110.821 201.707 96.0212C197.707 89.7545 194.374 84.1545 194.374 83.4878C194.374 82.8212 196.24 81.6212 198.374 80.6878C202.907 78.8212 203.174 78.1545 200.374 74.5545C197.44 70.6878 197.974 69.2212 201.04 72.8212C202.374 74.5545 203.574 75.4878 203.707 74.8212C203.707 74.1545 204.774 74.5545 206.107 75.4878C208.107 77.2212 208.24 77.0878 206.507 75.0878C205.574 73.7545 204.24 72.9545 203.707 73.3545C203.04 73.7545 201.307 71.8878 199.707 69.3545C198.107 66.8212 196.507 64.6878 196.24 64.6878C195.307 64.6878 196.24 68.0212 197.574 68.8212C198.107 69.3545 198.107 70.0212 197.44 70.4212C196.64 70.9545 194.907 70.2878 193.574 69.2212C192.24 68.0212 191.84 67.6212 192.907 68.1545C193.974 68.6878 194.507 68.5545 194.24 67.8878C193.84 67.2212 192.774 65.0878 191.84 63.0878C190.774 61.0878 189.307 59.8878 188.507 60.2878C187.44 60.9545 187.44 60.6878 188.374 59.2212C190.24 56.8212 190.907 50.4212 189.44 49.6212C188.907 49.3545 187.574 49.3545 186.774 49.6212ZM201.707 100.421C200.907 101.354 197.174 96.5545 197.174 94.6878C197.174 93.8878 198.374 94.8212 199.84 96.5545C201.307 98.2878 202.107 100.021 201.707 100.421Z" fill="#F4F4F4"/>
<path d="M195.707 50.4211C196.774 51.6211 201.307 53.4878 205.707 54.4211C210.107 55.4878 213.574 56.9545 213.44 57.7545C213.307 58.4211 214.374 58.8211 215.84 58.4211C218.24 57.7545 218.24 57.4878 214.774 55.3545C212.774 54.1545 208.24 52.4211 204.907 51.6211C201.44 50.8211 197.574 49.6211 196.24 49.2211C193.974 48.4211 193.974 48.5545 195.707 50.4211Z" fill="#F4F4F4"/>
<path d="M165.707 52.6878C164.374 54.1545 162.774 54.9545 162.24 54.5545C161.574 54.1545 159.44 55.6211 157.574 57.8878C155.44 60.5545 152.907 62.0211 150.774 62.0211C147.44 62.0211 147.44 62.1545 149.44 64.4211C151.174 66.4211 151.307 67.2211 149.974 68.6878C148.64 70.2878 148.774 70.2878 150.774 68.8211C152.507 67.4878 152.64 66.5545 151.707 65.2211C150.507 64.0211 150.774 63.7545 152.64 64.1545C154.24 64.5545 157.707 62.1545 162.774 57.3545C167.04 53.3545 169.974 50.0211 169.307 50.0211C168.64 50.0211 167.04 51.2211 165.707 52.6878Z" fill="#F4F4F4"/>
<path d="M57.7069 60.0212C52.6402 64.8212 47.7069 68.6878 46.7736 68.6878C45.5736 68.6878 45.9736 70.2878 48.1069 73.6212C51.3069 79.0878 53.8402 84.2878 54.6402 87.2212C55.0402 88.5545 55.5736 88.4212 57.0402 86.5545C58.5069 84.8212 58.6402 84.4212 57.1736 85.2212C55.8402 86.1545 55.5736 85.7545 56.2402 83.6212C56.7736 82.0212 56.5069 80.4212 55.4402 79.7545C54.5069 79.2212 52.6402 76.4212 51.4402 73.6212C49.3069 69.2212 49.3069 68.5545 51.0402 67.7545C52.2402 67.3545 53.5736 67.3545 53.9736 67.8878C54.3736 68.2878 55.5736 68.0212 56.5069 67.2212C57.5736 66.2878 58.3736 66.2878 59.0402 67.3545C59.4402 68.0212 60.5069 68.6878 61.4402 68.6878C62.2402 68.6878 61.8402 67.8878 60.3736 66.9545C58.1069 65.0878 58.1069 64.9545 60.5069 62.4212C62.9069 60.0212 68.3736 51.3545 67.4402 51.3545C67.1736 51.3545 62.9069 55.3545 57.7069 60.0212Z" fill="#F4F4F4"/>
<path d="M192.24 56.8212C192.374 60.8212 192.907 61.3545 196.374 61.3545C198.507 61.4878 200.374 62.1545 200.774 63.0878C201.04 64.0212 202.107 64.6878 203.174 64.6878C204.24 64.6878 205.04 65.4878 205.04 66.4212C205.04 68.8212 209.84 73.0878 211.707 72.4212C212.64 72.1545 210.374 69.3545 206.774 66.2878C203.307 63.2212 198.507 58.8212 196.24 56.4212L191.974 52.2878L192.24 56.8212Z" fill="#F4F4F4"/>
<path d="M51.0402 56.6878C50.6402 57.4878 51.1736 57.6211 52.2402 57.2211C54.6402 56.2878 55.0402 55.3545 53.1736 55.3545C52.3736 55.3545 51.4402 55.8878 51.0402 56.6878Z" fill="#F4F4F4"/>
<path d="M148.374 58.8211C145.44 60.5545 140.24 63.3545 136.774 64.9545C133.174 66.4211 130.374 68.2878 130.374 68.9545C130.374 69.6211 129.574 69.7545 128.774 69.2211C127.44 68.4211 127.44 68.6878 128.64 70.1545C129.574 71.0878 132.374 72.5545 134.64 73.3545C137.04 74.1545 138.907 75.6211 138.64 76.5545C138.507 77.6211 138.907 77.8878 139.974 77.0878C141.707 76.0211 142.374 75.8878 145.04 75.4878C147.307 75.2211 146.507 72.6878 144.24 72.6878C142.374 72.6878 142.24 72.4211 143.84 70.4211C145.44 68.4211 145.44 68.2878 143.307 69.0878C141.84 69.6211 140.107 69.2211 139.174 68.2878C137.707 66.8211 139.04 65.6211 146.507 61.4878C151.574 58.8211 155.707 56.2878 155.707 55.8878C155.707 54.6878 153.574 55.4878 148.374 58.8211Z" fill="#F4F4F4"/>
<path d="M105.84 57.7545C105.44 58.4211 106.24 60.0211 107.574 61.3545C109.84 63.3545 110.107 63.3545 109.84 61.4878C109.44 58.5545 106.907 56.1545 105.84 57.7545Z" fill="#F4F4F4"/>
<path d="M213.84 62.5545C215.174 63.6211 216.64 64.1545 217.04 63.8878C217.707 63.0878 214.24 60.6878 212.507 60.6878C211.707 60.6878 212.374 61.4878 213.84 62.5545Z" fill="#F4F4F4"/>
<path d="M96.5069 63.7545C96.9069 65.0878 97.7069 65.7545 98.1069 65.3545C98.5069 64.9545 98.1069 63.8878 97.1736 62.9545C95.8402 61.7545 95.7069 61.8878 96.5069 63.7545Z" fill="#F4F4F4"/>
<path d="M103.707 62.5545C103.707 62.8212 104.774 63.8878 106.107 64.8212C108.107 66.5545 108.24 66.4212 106.507 64.2878C104.774 62.1545 103.707 61.4878 103.707 62.5545Z" fill="#F4F4F4"/>
<path d="M115.707 63.8878C115.707 64.1545 116.774 65.2211 118.107 66.1545C120.107 67.8878 120.24 67.7545 118.507 65.6211C116.774 63.4878 115.707 62.8211 115.707 63.8878Z" fill="#F4F4F4"/>
<path d="M113.04 65.8878C113.04 66.5545 113.974 67.4878 115.174 67.8878C117.04 68.5545 117.174 68.4211 115.707 66.6878C113.84 64.4211 113.04 64.1545 113.04 65.8878Z" fill="#F4F4F4"/>
<path d="M174.507 66.8211C174.507 68.2878 174.907 68.6878 175.307 67.6211C175.707 66.6878 175.574 65.4878 175.174 65.0878C174.774 64.5545 174.374 65.3545 174.507 66.8211Z" fill="#F4F4F4"/>
<path d="M93.0402 70.9545C93.0402 74.5545 100.907 92.4212 101.04 88.9545C101.04 86.1545 103.707 88.5545 103.707 91.4878C103.707 92.9545 103.174 93.7545 102.374 93.3545C100.107 91.8878 100.907 94.5545 104.374 99.6212C107.974 104.821 108.507 106.688 106.374 105.354C104.64 104.288 104.64 105.488 106.374 108.821C107.174 110.154 108.374 111.354 109.04 111.354C111.04 111.354 110.64 101.221 108.374 95.8878C107.307 93.2212 106.774 90.4212 107.307 89.6212C107.84 88.8212 107.44 88.6878 106.374 89.3545C105.04 90.1545 104.774 89.7545 105.307 87.6212C105.84 86.0212 105.707 84.9545 105.04 85.3545C104.507 85.7545 103.707 85.2212 103.307 84.1545C102.907 83.0878 103.44 81.8878 104.507 81.4878C105.574 81.0878 106.774 81.6212 107.04 82.6878C107.44 83.7545 107.974 85.4878 108.24 86.5545C108.64 87.7545 109.974 88.1545 111.84 87.7545C114.107 87.0878 114.64 87.3545 114.107 88.8212C113.707 89.8878 113.84 93.7545 114.374 97.3545C115.574 104.954 114.774 111.354 112.907 108.421C112.107 107.088 111.707 107.354 111.707 109.354C111.707 110.821 110.774 113.488 109.574 115.088C107.04 118.821 107.44 119.488 111.44 118.421C113.174 118.021 114.374 116.688 114.374 115.088C114.374 113.621 114.907 111.354 115.707 110.021C116.374 108.688 117.174 104.554 117.574 100.954C117.84 97.3545 118.374 93.7545 118.64 93.2212C119.974 90.9545 119.84 69.7545 118.64 70.5545C116.774 71.7545 98.1069 71.8878 95.4402 70.6878C94.1069 70.1545 93.0402 70.2878 93.0402 70.9545ZM106.374 98.1545C106.374 98.9545 105.84 99.0878 105.04 98.6878C104.374 98.2878 103.707 97.2212 103.707 96.5545C103.707 95.7545 104.374 95.6212 105.04 96.0212C105.84 96.4212 106.374 97.4878 106.374 98.1545Z" fill="#F4F4F4"/>
<path d="M173.574 73.8878C173.84 79.7545 175.707 80.5545 175.707 74.9545C175.707 72.1545 175.174 70.0211 174.507 70.0211C173.84 70.0211 173.44 71.7545 173.574 73.8878Z" fill="#F4F4F4"/>
<path d="M60.1069 72.8212C60.5069 74.0212 60.1069 75.7545 59.3069 76.5545C58.2402 77.6212 58.2402 78.0212 59.5736 78.0212C60.5069 78.0212 60.7736 78.6878 60.2402 79.6212C59.5736 80.5545 59.9736 80.8212 61.3069 80.2878C62.5069 79.8878 66.1069 78.8212 69.1736 77.8878C76.5069 75.7545 79.1736 73.6212 73.7069 74.1545C71.4402 74.4212 68.9069 74.1545 67.9736 73.4878C66.9069 72.8212 65.5736 72.9545 64.6402 73.8878C63.7069 74.8212 62.7736 74.5545 61.4402 72.9545C59.7069 70.9545 59.5736 70.9545 60.1069 72.8212Z" fill="#F4F4F4"/>
<path d="M155.707 73.3545C155.707 74.4211 156.24 75.3545 156.774 75.3545C157.44 75.3545 157.974 74.4211 157.974 73.3545C157.974 72.2878 157.44 71.3545 156.774 71.3545C156.24 71.3545 155.707 72.2878 155.707 73.3545Z" fill="#F4F4F4"/>
<path d="M166.774 77.3545C165.707 82.0211 165.84 83.6211 167.174 84.8211C168.24 85.6211 168.774 86.8211 168.374 87.3545C167.974 88.0211 168.24 88.8211 168.907 89.2211C170.24 90.0211 169.84 84.0211 168.24 79.0878C167.707 77.2211 167.974 76.6878 168.907 77.2211C169.84 77.7545 170.374 77.0878 170.374 75.4878C170.374 70.2878 168.107 71.4878 166.774 77.3545Z" fill="#F4F4F4"/>
<path d="M76.2402 78.2878C71.7069 85.2211 71.1735 87.3545 74.1069 87.3545C75.4402 87.3545 78.1069 89.2211 80.1069 91.6211C82.2402 94.0211 83.5735 95.2211 83.0402 94.2878C82.6402 93.4878 82.9069 92.6878 83.7069 92.6878C84.5069 92.6878 84.7735 92.0211 84.3735 91.3545C83.9735 90.5545 84.1069 90.0211 84.6402 90.0211C85.3069 90.0211 86.5069 91.2211 87.3069 92.6878C88.7735 94.8211 88.6402 95.0878 87.0402 94.4211C84.7735 93.6211 91.3069 101.354 98.5069 108.021C102.507 111.754 102.64 111.754 101.04 108.688C100.107 106.821 95.9735 101.088 91.8402 96.0211C87.7069 90.8211 84.3735 86.4211 84.3735 86.0211C84.2402 85.6211 83.4402 83.8878 82.3735 82.0211C81.3069 80.1545 80.6402 77.3545 80.9069 75.6211C81.4402 71.4878 80.6402 71.8878 76.2402 78.2878Z" fill="#F4F4F4"/>
<path d="M85.0402 74.5545C85.9735 75.4878 86.9069 75.3545 87.8402 74.4211C89.0402 73.2211 88.7735 72.8211 86.6402 73.0878C84.7735 73.2211 84.2402 73.7545 85.0402 74.5545Z" fill="#F4F4F4"/>
<path d="M218.374 76.5545C218.374 78.4211 217.574 79.0878 215.707 78.9545C214.24 78.8211 213.04 78.1545 213.04 77.4878C213.04 76.8211 212.64 76.5545 212.24 76.9545C211.84 77.3545 211.974 80.0211 212.507 82.8211C213.44 87.6211 213.574 87.7545 214.374 84.6878C215.04 81.8878 215.44 82.4211 216.24 87.6211C217.307 94.4211 219.174 96.0211 220.107 90.9545C220.507 89.3545 220.507 90.5545 220.24 93.6211C219.974 96.8211 220.374 99.3545 221.04 99.3545C223.707 99.3545 223.174 87.2211 220.507 85.7545C219.307 85.0878 218.907 82.9545 219.307 79.3545C219.574 76.4211 219.574 74.0211 219.174 74.0211C218.64 74.0211 218.374 75.2211 218.374 76.5545Z" fill="#F4F4F4"/>
<path d="M44.1069 76.2878C41.8402 77.0878 41.8402 79.3545 44.1069 79.3545C45.1736 79.3545 45.9736 78.4211 45.9736 77.3545C45.9736 76.2878 45.8402 75.3545 45.8402 75.4878C45.7069 75.4878 44.9069 75.8878 44.1069 76.2878Z" fill="#F4F4F4"/>
<path d="M89.0402 76.1545C89.0402 76.9545 89.9736 78.6878 91.1736 80.1545C93.0402 82.5545 93.0402 82.5545 91.5736 79.3545C89.7069 75.2212 89.0402 74.5545 89.0402 76.1545Z" fill="#F4F4F4"/>
<path d="M132.374 79.4878C131.84 80.2878 131.707 81.0878 132.107 81.4878C132.374 81.8878 133.04 81.2212 133.44 80.0212C134.374 77.7545 133.574 77.3545 132.374 79.4878Z" fill="#F4F4F4"/>
<path d="M136.24 82.6878C134.374 84.5545 133.174 86.9545 133.44 88.0212C133.84 88.9545 133.44 90.0212 132.64 90.4212C131.707 90.8212 129.974 93.0878 128.64 95.4878C126.64 99.2212 126.507 99.6212 128.374 97.3545C130.64 94.6878 130.64 94.6878 129.707 97.8878C129.04 100.021 129.174 100.688 130.24 100.154C131.04 99.6212 131.707 99.6212 131.574 100.288C130.907 104.288 131.84 104.954 134.774 102.554L137.707 100.021L135.174 103.088C133.707 104.688 132.374 107.621 132.24 109.488C131.974 112.288 132.24 112.688 134.107 112.021C135.307 111.488 137.44 110.688 138.774 110.288C140.774 109.754 140.907 109.354 139.44 108.421C138.24 107.488 138.507 107.354 140.774 107.754C142.374 108.154 143.44 107.888 143.04 107.354C142.64 106.821 144.507 104.954 147.174 103.488C150.907 101.221 151.84 101.088 151.307 102.688C150.24 105.354 151.707 105.221 155.707 102.421C157.574 101.088 160.107 99.8878 161.44 99.7545C162.774 99.4878 166.107 98.1545 168.774 96.8212L173.707 94.2878L170.107 93.3545C168.107 92.8212 166.24 91.7545 165.974 90.8212C165.04 88.4212 145.707 79.3545 141.574 79.3545C140.507 79.3545 138.107 80.8212 136.24 82.6878ZM139.974 90.2878C139.04 91.2212 138.374 91.3545 138.374 90.5545C138.374 88.6878 139.974 87.0878 140.907 88.0212C141.174 88.4212 140.774 89.4878 139.974 90.2878ZM149.04 89.0878C149.04 89.3545 146.774 91.6212 144.107 94.1545L139.04 98.6878L143.574 93.6212C147.974 89.0878 149.04 88.0212 149.04 89.0878ZM150.507 97.2212C152.507 96.0212 151.84 97.6212 149.44 99.4878C147.974 100.821 147.574 100.821 148.24 99.6212C148.774 98.6878 148.507 98.0212 147.707 98.0212C146.907 98.0212 146.64 97.3545 147.174 96.4212C147.974 95.2212 148.374 95.2212 148.774 96.4212C149.04 97.3545 149.84 97.7545 150.507 97.2212ZM145.04 97.0878C145.04 97.3545 143.707 98.6878 142.107 100.154L139.04 102.688L141.574 99.6212C143.974 96.8212 145.04 96.0212 145.04 97.0878ZM146.374 101.354C146.374 102.154 138.907 106.021 137.44 106.021C136.907 105.888 138.507 104.821 141.04 103.354C146.24 100.421 146.374 100.421 146.374 101.354Z" fill="#F4F4F4"/>
<path d="M173.974 85.6211C173.707 88.4211 173.974 91.2211 174.507 91.8878C175.174 92.6878 175.707 90.5545 175.707 86.9545C175.707 79.3545 174.907 78.8211 173.974 85.6211Z" fill="#F4F4F4"/>
<path d="M232.774 89.6211C231.174 94.6878 229.707 99.6211 229.707 100.821C229.707 102.021 228.907 103.754 228.107 104.954C226.374 106.954 222.374 115.888 222.374 117.621C222.374 118.154 223.174 117.621 224.107 116.554C224.907 115.488 227.307 113.888 229.44 112.954C232.374 111.754 233.04 111.754 233.04 113.354C233.04 114.288 232.507 115.621 231.707 116.021C231.04 116.421 230.374 117.488 230.374 118.154C230.374 118.954 232.774 117.888 235.574 115.754C238.507 113.754 240.507 111.621 240.24 111.221C239.974 110.688 240.774 110.421 241.974 110.554C243.307 110.554 244.374 109.754 244.374 108.688C244.374 107.354 245.44 106.821 247.44 107.088C249.04 107.354 250.374 106.954 250.374 106.288C250.374 104.421 253.974 103.221 256.507 104.288C258.24 104.954 258.24 105.354 256.774 106.288C255.307 107.354 255.307 107.488 256.774 107.088C257.84 106.821 258.507 106.154 258.374 105.488C258.24 104.821 258.907 103.754 259.974 103.088C261.04 102.288 260.64 102.154 258.374 102.821C255.574 103.621 255.307 103.488 256.64 101.754C258.107 100.154 257.707 99.0878 254.64 96.2878C247.307 89.0878 237.707 80.6878 236.774 80.6878C236.374 80.6878 234.507 84.6878 232.774 89.6211ZM235.44 97.0878C234.507 99.0878 232.907 100.688 232.107 100.688C229.84 100.688 229.974 100.021 232.507 95.0878C235.174 90.0211 237.84 91.8878 235.44 97.0878ZM231.04 108.688C228.907 110.821 226.907 112.421 226.64 112.021C226.374 111.754 227.707 109.621 229.84 107.488C231.84 105.221 233.84 103.754 234.24 104.154C234.507 104.421 233.174 106.554 231.04 108.688Z" fill="#F4F4F4"/>
<path d="M41.7069 84.5545C41.3069 85.3545 41.5736 86.0211 42.2402 86.0211C43.0402 86.0211 44.9069 87.2211 46.3736 88.6878C47.9736 90.2878 49.7069 91.0878 50.3736 90.6878C52.6402 89.3545 51.8402 87.3545 49.4402 88.1545C47.4402 88.8211 47.4402 88.5545 49.5736 86.8211C52.2402 84.6878 52.1069 84.6878 49.4402 84.6878C47.8402 84.6878 45.7069 84.2878 44.6402 83.8878C43.5736 83.4878 42.2402 83.7545 41.7069 84.5545Z" fill="#F4F4F4"/>
<path d="M60.1069 87.0878C60.1069 89.7545 62.1069 92.6878 64.1069 92.6878C64.7736 92.6878 64.3736 91.4878 63.1736 90.1545C61.4402 88.2878 61.3069 87.4878 62.5069 87.0878C63.7069 86.6878 63.7069 86.2878 62.2402 85.7545C60.9069 85.2212 60.1069 85.7545 60.1069 87.0878Z" fill="#F4F4F4"/>
<path d="M93.0402 86.0211C93.0402 86.6878 93.7069 87.3545 94.3736 87.3545C95.1736 87.3545 95.7069 86.6878 95.7069 86.0211C95.7069 85.2211 95.1736 84.6878 94.3736 84.6878C93.7069 84.6878 93.0402 85.2211 93.0402 86.0211Z" fill="#F4F4F4"/>
<path d="M70.3736 89.6212C70.3736 90.5545 81.3069 98.8212 87.3069 102.421C91.7069 105.088 88.3736 101.621 81.4402 96.4212C71.8402 89.2212 70.3736 88.2878 70.3736 89.6212Z" fill="#F4F4F4"/>
<path d="M183.44 89.6211C184.374 90.0211 185.574 89.8878 185.974 89.4878C186.507 89.0878 185.707 88.6878 184.24 88.8211C182.774 88.8211 182.374 89.2211 183.44 89.6211Z" fill="#F4F4F4"/>
<path d="M35.8402 90.9545C35.7069 91.8878 34.9069 92.6878 33.8402 92.6878C32.7736 92.6878 31.5736 93.4878 31.3069 94.2878C30.7736 95.6211 30.5069 95.6211 30.5069 94.2878C30.3736 93.4878 29.8402 92.6878 29.1736 92.6878C28.5069 92.6878 29.1736 95.8878 30.5069 99.6211C31.9736 103.488 34.1069 109.221 35.1736 112.421C36.3736 115.621 37.7069 117.888 38.1069 117.488C39.1736 116.421 38.3736 97.4878 37.0402 93.0878C36.5069 91.0878 35.8402 90.1545 35.8402 90.9545Z" fill="#F4F4F4"/>
<path d="M214.507 92.1545C214.507 93.6211 214.907 94.0211 215.307 92.9545C215.707 92.0211 215.574 90.8211 215.174 90.4211C214.774 89.8878 214.374 90.6878 214.507 92.1545Z" fill="#F4F4F4"/>
<path d="M53.9736 93.8878C52.5069 95.7545 52.6402 95.7545 54.7736 94.1545C56.7736 92.5545 57.0402 92.6878 57.0402 95.2211C57.0402 96.6878 57.5736 98.0211 58.2402 98.0211C58.9069 98.0211 59.3069 96.6878 59.1736 94.9545C59.0402 91.3545 56.3736 90.8211 53.9736 93.8878Z" fill="#F4F4F4"/>
<path d="M181.04 93.3545C180.107 94.4211 178.374 95.3545 177.174 95.4878C175.974 95.4878 175.707 95.8878 176.64 96.1545C177.574 96.5545 177.84 97.8878 177.44 99.0878C177.04 100.421 177.307 100.821 177.974 100.021C178.507 99.2211 179.84 98.6878 180.774 98.5545C181.574 98.4211 183.307 98.2878 184.507 98.1545C185.84 98.1545 186.374 96.9545 186.107 95.0878C185.574 91.4878 183.307 90.6878 181.04 93.3545ZM181.707 96.6878C182.107 97.3545 181.84 98.0211 181.174 98.0211C180.374 98.0211 179.707 97.3545 179.707 96.6878C179.707 95.8878 179.974 95.3545 180.24 95.3545C180.64 95.3545 181.307 95.8878 181.707 96.6878Z" fill="#F4F4F4"/>
<path d="M66.7735 97.8878C66.7735 99.3545 67.4402 100.288 67.9735 99.8878C68.5069 99.4878 68.6402 98.4212 68.1069 97.3545C67.1735 94.5545 66.5069 94.8212 66.7735 97.8878Z" fill="#F4F4F4"/>
<path d="M215.707 99.7545C215.707 101.621 216.64 104.154 217.84 105.221C220.507 107.888 221.84 108.021 219.707 105.354C218.774 104.288 218.374 102.554 218.774 101.488C219.174 100.421 218.64 98.8212 217.574 98.0212C216.107 96.6878 215.707 96.9545 215.707 99.7545Z" fill="#F4F4F4"/>
<path d="M22.3736 98.6878C22.3736 99.8878 26.3736 107.354 27.0402 107.354C27.9736 107.354 24.9069 99.3545 23.5736 98.5545C22.9069 98.1545 22.3736 98.2878 22.3736 98.6878Z" fill="#F4F4F4"/>
<path d="M125.84 102.688C126.24 103.621 125.84 104.821 124.907 105.488C123.84 106.154 123.574 105.888 124.374 104.554C125.174 103.088 125.04 103.088 123.707 104.288C122.64 105.221 122.374 107.221 122.907 109.354C123.84 112.821 123.974 112.954 126.374 110.688C127.84 109.354 129.04 108.954 129.04 109.754C129.04 110.554 127.707 112.154 126.107 113.221C124.107 114.688 123.84 115.354 125.04 115.354C127.04 115.354 131.84 112.688 129.974 112.688C129.44 112.688 129.574 111.488 130.374 110.021C131.44 108.154 131.44 107.354 130.374 107.354C129.574 107.354 129.04 106.021 129.307 104.554C129.574 102.688 128.907 101.488 127.44 101.354C126.107 101.088 125.44 101.621 125.84 102.688Z" fill="#F4F4F4"/>
<path d="M174.374 101.754C174.374 102.288 175.574 103.488 177.04 104.421C178.507 105.354 179.707 105.621 179.707 104.954C179.707 104.421 178.507 103.221 177.04 102.288C175.574 101.354 174.374 101.088 174.374 101.754Z" fill="#F4F4F4"/>
<path d="M187.974 102.021C188.507 103.888 197.84 109.888 200.24 110.021C200.907 110.021 200.507 108.954 199.307 107.621C197.44 105.488 197.04 104.688 197.04 102.554C197.04 102.021 196.24 102.288 195.307 103.088C193.974 104.288 192.774 104.021 190.374 102.421C188.107 100.821 187.574 100.821 187.974 102.021Z" fill="#F4F4F4"/>
<path d="M221.174 102.821C221.174 104.288 221.574 104.688 221.974 103.621C222.374 102.688 222.24 101.488 221.84 101.088C221.44 100.554 221.04 101.354 221.174 102.821Z" fill="#F4F4F4"/>
<path d="M65.7069 103.754C68.7736 105.888 73.0402 107.488 73.0402 106.688C73.0402 105.888 65.5736 102.021 64.1069 102.021C63.5736 102.021 64.2402 102.821 65.7069 103.754Z" fill="#F4F4F4"/>
<path d="M48.3736 105.888C47.1736 108.021 43.8402 118.021 44.3736 118.021C45.0402 118.021 51.7069 106.821 51.7069 105.621C51.7069 104.288 49.3069 104.554 48.3736 105.888Z" fill="#F4F4F4"/>
<path d="M11.3069 110.288C11.0402 111.221 13.1736 113.354 16.1069 114.954C23.1736 119.088 23.7069 118.821 18.3736 113.354C13.4402 108.288 12.2402 107.754 11.3069 110.288Z" fill="#F4F4F4"/>
<path d="M61.7069 111.221C60.5069 112.421 63.9736 115.221 65.8402 114.421C68.7736 113.354 77.1736 115.221 76.2402 116.954C75.7069 117.621 76.2402 118.821 77.1736 119.488C78.6402 120.421 78.5069 120.688 76.6402 120.688C75.3069 120.688 73.9736 119.754 73.5736 118.688C73.0402 117.621 72.1069 116.688 71.3069 116.688C70.5069 116.688 70.2402 117.088 70.6402 117.488C71.0402 117.888 69.9736 119.621 68.3736 121.221C65.7069 123.888 65.4402 125.088 66.3736 129.221C66.9069 131.888 67.1736 134.021 66.9069 134.021C66.5069 134.021 67.0402 135.354 67.8402 136.954C68.7736 138.554 69.3069 142.288 69.3069 145.221C69.1736 148.288 70.1069 152.288 71.5736 154.688C72.9069 157.088 74.5069 160.821 75.0402 163.088C75.5736 165.754 76.5069 166.954 77.7069 166.554C78.7736 166.021 79.7069 166.954 79.9736 168.821C80.5069 172.954 82.9069 173.354 84.6402 169.621C85.9736 166.821 85.0402 156.021 83.5736 154.821C83.3069 154.688 80.1069 153.088 76.5069 151.488L69.9736 148.554L74.5069 144.154C77.0402 141.754 79.5736 139.888 80.2402 139.888C80.7736 140.021 81.5736 138.954 81.7069 137.621C82.1069 135.754 81.5736 135.354 79.9736 136.021C77.9736 136.688 77.9736 136.554 80.1069 134.421C82.1069 132.421 82.6402 132.288 83.5736 133.888C84.5069 135.354 85.0402 135.221 86.2402 133.088C86.9069 131.621 87.1736 130.021 86.7736 129.488C86.3736 129.088 86.9069 128.688 88.1069 128.688C89.4402 128.688 90.3736 129.621 90.3736 130.821C90.3736 131.888 91.0402 132.421 91.7069 132.021C93.3069 130.954 92.1069 125.888 89.8402 124.288C88.9069 123.621 89.4402 123.354 91.0402 123.621C92.6402 123.888 93.5736 124.954 93.3069 126.421C92.7736 129.621 96.3736 129.221 103.574 125.488L109.574 122.421L106.374 120.688C104.507 119.754 100.507 118.954 97.4402 119.088C94.2402 119.088 91.4402 118.554 90.9069 117.888C90.5069 117.221 89.4402 116.688 88.6402 116.688C87.7069 116.688 87.8402 117.221 89.0402 118.021C90.6402 119.088 90.5069 119.354 87.9736 119.354C86.3736 119.354 85.1736 118.688 85.3069 117.888C85.7069 116.421 62.9069 109.888 61.7069 111.221ZM96.2402 121.754C96.6402 122.421 95.1736 122.554 92.9069 122.288C90.7736 122.021 89.0402 121.488 89.0402 121.221C89.0402 120.154 95.5736 120.688 96.2402 121.754ZM102.374 122.688C102.374 124.288 99.8402 124.288 99.3069 122.688C98.7736 121.488 99.1736 121.088 100.507 121.621C101.44 122.021 102.374 122.554 102.374 122.688ZM77.7069 131.354C73.9736 132.954 71.4402 132.954 72.3736 131.354C72.7736 130.554 74.7736 130.021 76.7736 130.154C79.9736 130.154 80.1069 130.288 77.7069 131.354ZM77.0402 137.221C77.0402 137.488 76.1069 138.154 74.9069 138.554C73.8402 138.954 73.3069 138.821 73.7069 138.021C74.5069 136.688 77.0402 136.154 77.0402 137.221ZM83.3069 167.621C82.9069 168.688 82.5069 168.288 82.5069 166.821C82.3736 165.354 82.7736 164.554 83.1736 165.088C83.5736 165.488 83.7069 166.688 83.3069 167.621Z" fill="#F4F4F4"/>
<path d="M174.374 112.021C174.374 113.088 174.907 114.021 175.707 114.021C176.374 114.021 176.64 113.088 176.24 112.021C175.707 110.954 175.174 110.021 174.907 110.021C174.64 110.021 174.374 110.954 174.374 112.021Z" fill="#F4F4F4"/>
<path d="M218.907 111.488C218.507 112.288 218.774 113.621 219.574 114.421C220.64 115.488 221.04 115.088 221.04 112.954C221.04 109.754 220.374 109.221 218.907 111.488Z" fill="#F4F4F4"/>
<path d="M204.907 113.088C205.707 114.154 205.974 115.221 205.574 115.754C205.174 116.154 206.107 117.221 207.84 118.021L210.774 119.621L207.84 115.488C206.24 113.221 204.507 111.354 204.107 111.354C203.707 111.354 204.107 112.154 204.907 113.088Z" fill="#F4F4F4"/>
<path d="M158.774 114.288C158.907 115.354 157.44 116.154 155.04 116.288C151.174 116.554 151.174 116.554 154.374 115.354C157.04 114.421 156.374 114.288 151.04 114.421C146.64 114.554 144.507 115.221 144.64 116.288C144.907 117.221 144.24 117.621 143.307 117.221C142.24 116.821 141.44 117.488 141.44 118.554C141.44 119.621 142.64 120.421 143.974 120.288C145.307 120.154 146.374 119.621 146.374 119.088C146.374 117.488 151.44 117.888 152.507 119.621C153.174 120.554 152.507 120.821 150.64 120.421C148.24 119.754 147.974 120.021 149.04 122.021C150.907 125.488 149.44 126.021 143.44 123.888C136.907 121.621 137.44 121.621 137.44 124.021C137.44 125.221 139.84 126.421 144.24 127.354C147.974 128.154 152.24 129.088 153.84 129.488C155.707 130.021 156.64 129.621 156.64 128.154C156.64 126.954 155.44 126.021 154.107 126.021C152.774 126.021 151.707 125.354 151.707 124.554C151.707 123.621 153.04 123.354 155.44 123.888C157.84 124.554 158.374 124.421 157.174 123.488C155.707 122.554 155.84 122.154 157.84 121.621C159.974 121.088 159.974 120.954 157.44 120.821C152.774 120.554 153.84 118.021 158.507 118.021C161.707 118.021 162.507 117.621 161.84 115.888C161.44 114.688 161.04 113.488 161.04 113.221C161.04 112.954 160.507 112.688 159.707 112.688C159.04 112.688 158.507 113.488 158.774 114.288Z" fill="#F4F4F4"/>
<path d="M23.7069 115.354C23.7069 116.021 24.3736 116.688 25.0402 116.688C25.8402 116.688 26.3736 116.021 26.3736 115.354C26.3736 114.554 25.8402 114.021 25.0402 114.021C24.3736 114.021 23.7069 114.554 23.7069 115.354Z" fill="#F4F4F4"/>
<path d="M192.107 117.354C194.107 119.354 196.507 120.688 197.307 120.421C198.107 120.154 196.507 118.554 193.574 116.821L188.374 113.888L192.107 117.354Z" fill="#F4F4F4"/>
<path d="M65.8402 117.354C65.4402 118.554 65.8402 119.354 67.0402 119.354C68.2402 119.354 68.6402 118.554 68.2402 117.354C67.7069 116.288 67.3069 115.354 67.0402 115.354C66.7735 115.354 66.3735 116.288 65.8402 117.354Z" fill="#F4F4F4"/>
<path d="M185.707 116.688C185.307 117.354 185.84 118.021 187.04 118.021C188.24 118.021 188.774 117.354 188.374 116.688C187.974 115.888 187.307 115.354 187.04 115.354C186.774 115.354 186.107 115.888 185.707 116.688Z" fill="#F4F4F4"/>
<path d="M6.10689 117.621C7.04022 118.021 8.24022 117.888 8.64022 117.488C9.17355 117.088 8.37355 116.688 6.90689 116.821C5.44022 116.821 5.04022 117.221 6.10689 117.621Z" fill="#F4F4F4"/>
<path d="M115.707 120.021C115.707 122.554 117.04 123.888 121.04 126.021C123.974 127.488 126.374 129.621 126.374 130.554C126.374 131.488 127.44 133.221 128.64 134.154C129.974 135.221 130.507 135.354 129.974 134.421C129.307 133.488 130.507 133.621 133.04 134.821C137.44 137.088 138.374 138.421 134.774 137.221C132.107 136.288 137.307 141.088 141.707 143.621C144.374 145.088 144.374 145.088 141.707 142.154L139.174 139.221L142.907 139.888C144.907 140.288 147.44 140.154 148.507 139.754C152.774 138.154 149.84 135.488 139.707 131.888C133.84 129.754 129.04 127.354 129.04 126.554C129.04 125.754 127.707 124.688 126.107 124.154C123.44 123.488 123.307 123.088 125.04 121.888C126.64 120.821 126.507 120.688 124.374 121.221C121.174 122.154 117.707 120.154 118.907 118.154C119.44 117.354 118.907 116.688 117.84 116.688C116.507 116.688 115.707 117.888 115.707 120.021Z" fill="#F4F4F4"/>
<path d="M218.374 118.154C218.374 118.821 219.04 119.088 219.707 118.688C220.507 118.288 221.04 117.621 221.04 117.221C221.04 116.954 220.507 116.688 219.707 116.688C219.04 116.688 218.374 117.354 218.374 118.154Z" fill="#F4F4F4"/>
<path d="M27.7069 119.754C27.7069 120.954 28.2402 122.154 28.9069 122.554C29.5736 123.088 29.9736 122.421 29.8402 121.354C29.4402 118.554 27.7069 117.221 27.7069 119.754Z" fill="#F4F4F4"/>
<path d="M213.04 121.355C213.04 122.421 213.707 123.355 214.507 123.355C215.574 123.355 215.44 124.155 214.24 125.488C212.64 127.355 212.774 127.621 215.04 127.221C218.64 126.421 219.174 122.555 215.84 120.688C213.574 119.488 213.04 119.621 213.04 121.355Z" fill="#F4F4F4"/>
<path d="M224.24 122.154C221.707 125.088 221.707 125.088 224.774 123.488C226.374 122.688 227.707 121.354 227.707 120.688C227.707 118.688 227.04 119.088 224.24 122.154Z" fill="#F4F4F4"/>
<path d="M15.7069 121.888C15.7069 123.221 23.4402 126.688 24.3736 125.754C24.7736 125.488 22.9069 124.154 20.3736 122.954C17.8402 121.754 15.7069 121.221 15.7069 121.888Z" fill="#F4F4F4"/>
<path d="M243.84 121.754C240.64 122.021 237.174 123.088 236.107 124.154C232.774 127.354 249.707 126.688 253.84 123.488L257.174 120.821L253.44 121.088C251.44 121.221 247.04 121.488 243.84 121.754Z" fill="#F4F4F4"/>
<path d="M0.506889 123.221C1.30689 124.154 3.04022 125.088 4.24022 125.221C5.57356 125.354 7.04022 126.288 7.70689 127.354C8.37356 128.421 10.3736 128.821 12.9069 128.421C16.5069 127.888 17.0402 128.154 17.0402 130.954C17.0402 132.688 16.3736 134.021 15.4402 134.021C14.6402 134.021 14.2402 134.288 14.5069 134.688C15.7069 135.754 31.7069 132.421 31.7069 131.088C31.7069 130.288 30.7736 130.021 29.7069 130.554C28.6402 130.954 27.7069 130.821 27.7069 130.154C27.7069 128.554 17.5736 125.488 15.8402 126.554C15.0402 127.088 14.3736 126.954 14.3736 126.288C14.3736 125.621 12.6402 124.688 10.5069 124.288C8.37356 123.888 4.90689 123.088 2.90689 122.554C-0.0264442 121.888 -0.559778 122.021 0.506889 123.221Z" fill="#F4F4F4"/>
<path d="M111.707 123.621C111.707 124.554 112.24 126.154 112.907 127.221C114.374 129.488 115.974 127.088 114.907 124.154C113.974 121.621 111.707 121.354 111.707 123.621Z" fill="#F4F4F4"/>
<path d="M206.374 123.354C209.04 125.088 210.774 125.088 209.707 123.354C209.307 122.554 207.84 122.021 206.64 122.021C204.64 122.021 204.64 122.288 206.374 123.354Z" fill="#F4F4F4"/>
<path d="M38.3736 126.021C38.3736 127.488 39.0402 128.688 39.7069 128.688C40.5069 128.688 41.0402 127.488 41.0402 126.021C41.0402 124.554 40.5069 123.354 39.7069 123.354C39.0402 123.354 38.3736 124.554 38.3736 126.021Z" fill="#F4F4F4"/>
<path d="M131.44 124.288C132.374 124.688 133.574 124.554 133.974 124.154C134.507 123.754 133.707 123.354 132.24 123.488C130.774 123.488 130.374 123.888 131.44 124.288Z" fill="#F4F4F4"/>
<path d="M173.974 124.288C173.44 124.688 173.04 125.754 173.04 126.421C173.04 127.221 173.44 127.488 173.84 126.954C174.374 126.554 175.574 126.954 176.507 128.021C178.507 130.021 182.907 129.354 181.574 127.221C181.174 126.554 181.974 126.021 183.174 126.021C186.64 126.021 184.907 125.088 179.574 124.154C177.04 123.754 174.507 123.754 173.974 124.288Z" fill="#F4F4F4"/>
<path d="M254.374 124.688C254.374 125.354 255.04 126.021 255.84 126.021C256.507 126.021 256.774 125.354 256.374 124.688C255.974 123.888 255.307 123.354 254.907 123.354C254.64 123.354 254.374 123.888 254.374 124.688Z" fill="#F4F4F4"/>
<path d="M193.44 125.621C194.64 125.888 196.774 125.888 198.107 125.621C199.307 125.221 198.24 124.954 195.707 124.954C193.174 124.954 192.107 125.221 193.44 125.621Z" fill="#F4F4F4"/>
<path d="M33.0402 128.421C33.0402 130.021 33.8402 131.354 34.7736 131.354C35.9736 131.354 35.8402 131.754 34.5069 132.554C31.8402 134.288 35.1736 135.754 37.9736 134.154C39.4402 133.354 39.7069 132.688 38.6402 132.688C37.7069 132.688 37.1736 132.154 37.5736 131.488C37.9736 130.954 37.1736 129.354 35.7069 128.021C33.1736 125.621 33.0402 125.754 33.0402 128.421Z" fill="#F4F4F4"/>
<path d="M1.04022 130.421C1.04022 133.754 5.97356 136.954 9.97356 136.288L13.7069 135.754L9.57356 135.488C6.24022 135.354 5.17356 134.688 4.50689 132.021C3.57356 128.554 1.04022 127.354 1.04022 130.421Z" fill="#F4F4F4"/>
<path d="M51.7069 129.221C51.7069 130.421 55.7069 131.088 56.3736 130.021C56.9069 129.221 55.9736 128.688 54.5069 128.688C52.9069 128.688 51.7069 128.954 51.7069 129.221Z" fill="#F4F4F4"/>
<path d="M43.1736 132.821C43.7069 133.621 43.4402 134.688 42.6402 135.221C41.9736 135.621 43.5736 139.088 46.5069 143.354C49.3069 147.354 52.7736 152.288 53.9736 154.288C56.9069 158.954 57.9736 158.821 63.5736 154.021L68.1069 150.154L64.9069 148.821C63.1736 148.154 61.1736 147.888 60.6402 148.288C59.4402 148.954 45.5736 135.354 45.9736 133.888C46.1069 133.354 45.4402 132.554 44.2402 132.154C43.0402 131.621 42.6402 131.888 43.1736 132.821ZM55.0402 148.421C54.1069 149.488 50.3736 147.488 50.3736 146.021C50.3736 145.221 51.3069 145.221 53.0402 146.288C54.3736 147.221 55.3069 148.154 55.0402 148.421Z" fill="#F4F4F4"/>
<path d="M246.374 132.421C246.374 133.088 247.84 134.021 249.707 134.288C251.574 134.688 253.04 134.421 253.04 133.888C253.04 133.221 252.507 132.688 251.84 132.688C251.174 132.688 249.707 132.288 248.507 131.888C247.307 131.488 246.374 131.621 246.374 132.421Z" fill="#F4F4F4"/>
<path d="M51.9736 133.354C52.2402 133.621 54.6402 134.688 57.3069 135.754C62.1069 137.754 62.2402 137.754 60.7736 135.354C59.8402 133.888 57.7069 132.954 55.4402 132.954C53.3069 133.088 51.8402 133.221 51.9736 133.354Z" fill="#F4F4F4"/>
<path d="M156.24 136.688C155.707 138.821 154.907 140.688 154.24 140.688C153.574 140.688 153.04 141.221 153.04 142.021C153.04 142.688 153.84 143.354 154.907 143.354C156.64 143.354 159.174 151.354 158.507 155.221C158.374 156.154 158.774 156.554 159.574 156.021C160.374 155.621 161.04 153.488 161.04 151.354C161.04 147.888 165.04 144.288 165.04 147.754C165.174 148.688 165.974 147.888 166.907 146.021C168.774 142.688 168.507 140.021 166.374 141.354C165.707 141.754 164.907 140.821 164.374 139.354C163.974 137.888 162.907 136.688 162.24 136.688C161.574 136.688 161.04 135.754 161.04 134.688C161.04 130.954 157.04 132.554 156.24 136.688ZM159.307 146.288C159.04 148.021 158.774 146.954 158.774 144.021C158.64 141.088 158.907 139.754 159.307 140.954C159.574 142.288 159.574 144.688 159.307 146.288Z" fill="#F4F4F4"/>
<path d="M227.707 134.554C227.707 136.021 241.307 152.821 241.974 152.154C242.374 151.754 241.707 150.554 240.507 149.354C239.307 148.154 238.374 146.821 238.374 146.288C238.24 145.088 227.707 133.488 227.707 134.554Z" fill="#F4F4F4"/>
<path d="M112.64 141.621C112.774 145.221 112.907 149.088 112.907 150.421C113.04 151.754 113.574 152.554 114.24 152.154C114.907 151.621 116.107 152.954 116.907 154.954L118.374 158.688L117.707 154.688C115.174 137.221 111.974 129.088 112.64 141.621Z" fill="#F4F4F4"/>
<path d="M200.374 136.954C199.707 137.621 197.307 139.621 195.04 141.354C192.907 143.088 191.44 144.821 191.974 145.354C193.174 146.554 199.44 142.288 201.174 139.088C202.774 136.154 202.374 135.088 200.374 136.954Z" fill="#F4F4F4"/>
<path d="M215.307 143.621C213.174 151.088 211.44 160.688 212.374 160.688C212.774 160.688 213.574 158.688 214.24 156.288C215.574 152.288 215.574 152.554 215.307 158.821C215.04 165.354 215.174 165.621 217.84 164.554C219.44 164.021 221.04 163.888 221.44 164.288C222.107 164.954 221.707 156.821 220.507 145.354C220.24 143.088 219.974 140.288 219.84 138.954C219.574 134.554 217.44 136.821 215.307 143.621Z" fill="#F4F4F4"/>
<path d="M14.3736 140.688C8.37355 143.888 10.6402 143.888 17.7069 140.688C20.6402 139.354 22.1069 138.154 21.0402 138.154C19.9736 138.154 16.9069 139.221 14.3736 140.688Z" fill="#F4F4F4"/>
<path d="M29.9736 148.554C27.3069 154.154 25.3069 157.221 25.8402 155.354C26.2402 153.488 26.6402 150.954 26.7736 149.754C26.9069 148.554 27.4402 147.888 27.9736 148.154C28.5069 148.554 29.0402 147.754 29.0402 146.554C29.0402 144.421 28.9069 144.421 26.3736 146.688C24.9069 148.021 24.1069 149.488 24.3736 150.021C24.7736 150.554 23.9736 151.488 22.7736 151.888C20.7736 152.688 20.7736 152.954 22.3736 154.021C23.9736 155.088 23.9736 155.354 21.9736 156.154C18.7736 157.354 19.1736 160.554 22.7736 161.354C24.5069 161.888 26.5069 163.888 27.3069 166.154C28.1069 168.288 29.3069 170.021 29.9736 170.021C31.4402 170.021 34.3736 162.154 34.3736 157.888C34.3736 155.354 34.6402 155.088 35.7069 156.688C36.6402 158.021 37.0402 155.754 37.0402 149.088C37.0402 143.888 36.6402 139.221 36.1069 138.954C35.4402 138.554 32.7736 142.821 29.9736 148.554ZM34.5069 150.021C33.5736 154.421 33.4402 154.421 32.6402 151.488C32.2402 149.621 32.5069 147.354 33.3069 146.421C35.3069 143.888 35.7069 144.688 34.5069 150.021ZM31.0402 158.954C30.5069 161.088 29.9736 163.354 29.9736 164.288C29.9736 165.221 29.4402 165.621 28.9069 165.221C28.3736 164.954 28.5069 162.688 29.1736 160.288C29.8402 158.021 30.3736 155.888 30.3736 155.754C30.3736 155.488 30.7736 155.354 31.1736 155.354C31.5736 155.354 31.5736 156.954 31.0402 158.954Z" fill="#F4F4F4"/>
<path d="M23.7069 141.354C22.2402 143.088 22.3736 143.221 24.2402 142.554C25.4402 142.154 26.3736 141.221 26.3736 140.554C26.3736 138.821 25.5736 139.088 23.7069 141.354Z" fill="#F4F4F4"/>
<path d="M237.707 140.554C237.307 141.354 238.24 142.554 239.707 143.354C241.307 144.154 242.107 145.488 241.574 146.421C240.907 147.621 241.04 147.621 242.374 146.421C243.84 145.088 244.64 145.088 246.24 146.421C248.107 147.888 248.107 147.754 246.64 145.754C245.574 144.421 244.374 143.488 243.974 143.621C241.974 144.021 238.374 141.621 239.174 140.554C239.574 139.888 239.574 139.354 239.174 139.354C238.774 139.354 238.24 139.888 237.707 140.554Z" fill="#F4F4F4"/>
<path d="M127.974 148.555C130.374 152.288 132.507 154.688 132.774 154.021C133.307 152.555 126.24 142.155 124.64 142.021C124.107 142.021 125.707 144.955 127.974 148.555Z" fill="#F4F4F4"/>
<path d="M57.8402 144.555C57.4402 145.221 57.8402 146.021 58.7736 146.288C61.0402 147.221 63.8402 146.021 62.9069 144.555C61.9736 142.955 58.7736 142.955 57.8402 144.555Z" fill="#F4F4F4"/>
<path d="M104.374 144.821C103.84 145.621 103.84 148.421 104.24 151.088C104.774 154.288 104.64 155.354 103.974 154.154C103.04 152.821 102.507 152.821 101.707 154.021C101.174 154.954 101.44 156.154 102.374 156.688C103.307 157.221 103.574 158.421 103.174 159.221C102.64 160.021 102.907 160.688 103.574 160.688C104.374 160.688 105.04 159.754 105.04 158.554C105.04 157.488 105.707 156.954 106.374 157.354C107.174 157.888 107.707 156.554 107.707 154.421C107.707 151.488 107.974 151.088 109.04 152.688C109.974 154.154 110.374 153.354 110.374 149.621C110.374 146.554 109.84 144.821 109.04 145.354C108.374 145.754 107.707 145.488 107.707 144.821C107.707 142.954 105.44 142.954 104.374 144.821Z" fill="#F4F4F4"/>
<path d="M14.9069 147.621L12.3736 150.688L15.4402 148.154C17.0402 146.688 18.3736 145.354 18.3736 145.088C18.3736 144.021 17.3069 144.821 14.9069 147.621Z" fill="#F4F4F4"/>
<path d="M167.574 151.754C166.64 154.821 165.307 157.754 164.507 158.288C163.707 158.821 163.707 160.688 164.507 163.621C165.574 166.954 166.507 168.021 168.774 167.888L171.574 167.754L169.04 171.088C165.707 175.221 165.707 176.821 168.774 175.888C170.64 175.221 170.64 175.488 168.507 177.221C164.374 180.554 167.974 179.754 173.307 176.021C178.507 172.421 181.974 171.354 177.574 174.688C176.24 175.754 175.574 176.688 176.24 176.688C177.84 176.688 191.44 168.821 192.374 167.354C192.774 166.688 191.44 165.221 189.44 164.154C187.44 163.088 186.374 162.154 187.307 162.021C189.307 162.021 181.04 152.688 178.907 152.688C178.107 152.688 176.907 153.621 176.507 154.821C176.107 155.888 175.04 156.421 174.24 155.888C173.174 155.354 173.04 155.488 173.574 156.421C174.907 158.554 172.507 162.421 169.574 162.821C167.174 163.221 167.174 163.088 169.44 161.488C171.84 159.621 172.64 157.221 170.24 158.688C169.574 159.221 169.84 157.354 170.907 154.688C172.64 150.554 172.774 149.488 171.174 148.021C169.707 146.554 169.174 147.088 167.574 151.754ZM178.374 166.288C178.374 167.221 176.907 168.688 175.04 169.488C171.84 171.088 171.84 171.088 174.107 167.888C176.64 164.421 178.374 163.754 178.374 166.288Z" fill="#F4F4F4"/>
<path d="M143.707 150.021C143.707 150.688 142.774 151.354 141.574 151.354C140.374 151.354 139.707 152.288 139.974 153.621C140.24 154.954 141.174 156.021 142.24 156.021C143.174 156.021 145.707 159.354 147.84 163.354C151.04 169.354 151.574 169.888 151.174 166.688C150.24 160.288 147.307 154.421 145.174 155.088C143.84 155.488 143.574 154.821 144.24 152.154C144.64 150.288 144.774 148.688 144.374 148.688C143.974 148.688 143.707 149.221 143.707 150.021Z" fill="#F4F4F4"/>
<path d="M186.24 150.954C184.507 153.088 184.64 153.221 186.774 151.488C188.907 149.754 189.574 148.688 188.507 148.688C188.24 148.688 187.174 149.754 186.24 150.954Z" fill="#F4F4F4"/>
<path d="M247.174 153.088C247.574 154.421 248.374 155.088 248.774 154.688C249.174 154.288 248.774 153.221 247.84 152.288C246.507 151.088 246.374 151.221 247.174 153.088Z" fill="#F4F4F4"/>
<path d="M113.174 157.888C113.04 161.088 113.44 162.154 114.374 161.221C115.307 160.288 115.307 158.688 114.507 156.554C113.307 153.488 113.174 153.621 113.174 157.888Z" fill="#F4F4F4"/>
<path d="M108.64 157.088C108.107 158.421 107.707 160.554 107.707 161.754C107.84 163.754 107.974 163.754 109.174 161.621C109.974 160.288 110.374 158.288 110.107 156.954C109.707 154.821 109.574 154.954 108.64 157.088Z" fill="#F4F4F4"/>
<path d="M50.5069 160.154C50.5069 161.621 50.9069 162.021 51.3069 160.954C51.7069 160.021 51.5736 158.821 51.1736 158.421C50.7736 157.888 50.3736 158.688 50.5069 160.154Z" fill="#F4F4F4"/>
<path d="M89.0402 159.488C89.0402 160.554 88.6402 162.821 88.1069 164.554C87.4402 166.954 87.7069 167.488 88.9069 166.688C90.2402 165.888 90.5069 166.688 89.7069 169.754C88.5069 175.754 91.3069 176.288 93.7069 170.421C96.2402 164.421 95.9736 162.288 92.1069 159.621C89.5736 158.021 89.0402 158.021 89.0402 159.488Z" fill="#F4F4F4"/>
<path d="M132.507 160.154C131.44 162.954 131.44 163.354 133.174 163.354C133.84 163.354 134.107 162.554 133.574 161.621C133.04 160.688 133.174 160.421 133.84 161.088C134.507 161.754 135.04 162.954 135.04 163.754C135.174 164.688 135.974 165.221 136.907 164.954C138.107 164.688 138.507 165.488 138.107 166.954C137.574 168.688 138.24 169.354 140.374 169.354C143.174 169.354 143.04 168.954 138.64 163.621C136.107 160.554 133.84 158.021 133.707 158.021C133.44 158.021 132.907 158.954 132.507 160.154Z" fill="#F4F4F4"/>
<path d="M158.374 163.621C158.374 170.154 159.04 169.888 160.107 162.954C160.507 160.288 160.374 158.021 159.574 158.021C158.907 158.021 158.374 160.554 158.374 163.621Z" fill="#F4F4F4"/>
<path d="M207.307 158.954C206.774 159.354 206.374 160.688 206.374 161.621C206.374 163.221 206.774 163.221 208.374 161.488C209.44 160.421 210.374 159.221 210.374 158.821C210.374 157.754 208.374 157.888 207.307 158.954Z" fill="#F4F4F4"/>
<path d="M34.9069 164.288C34.5069 166.421 33.5736 169.488 32.9069 171.221C31.9736 173.354 31.9736 174.821 32.9069 175.754C35.0402 177.888 35.7069 176.554 36.5069 168.288C37.3069 160.421 36.3736 158.021 34.9069 164.288Z" fill="#F4F4F4"/>
<path d="M38.6402 164.021C38.6402 166.154 38.9069 166.954 39.3069 165.621C39.5736 164.421 39.5736 162.554 39.3069 161.621C38.9069 160.821 38.6402 161.754 38.6402 164.021Z" fill="#F4F4F4"/>
<path d="M116.507 161.888C115.974 162.554 116.24 163.488 116.907 163.888C117.574 164.421 118.507 164.154 118.907 163.488C119.44 162.821 119.174 161.888 118.507 161.488C117.84 160.954 116.907 161.221 116.507 161.888Z" fill="#F4F4F4"/>
<path d="M200.507 162.688C199.307 166.154 199.574 166.954 201.174 164.288C201.974 162.954 202.374 161.488 201.974 161.221C201.707 160.821 201.04 161.488 200.507 162.688Z" fill="#F4F4F4"/>
<path d="M69.8402 165.621C70.2402 167.088 71.7069 168.954 73.1736 169.754C75.5736 171.354 75.7069 171.221 74.5069 168.954C73.8402 167.621 72.2402 165.754 71.1736 164.821C69.5736 163.488 69.3069 163.621 69.8402 165.621Z" fill="#F4F4F4"/>
<path d="M204.507 165.088C204.907 166.421 205.707 167.088 206.107 166.688C206.507 166.288 206.107 165.221 205.174 164.288C203.84 163.088 203.707 163.221 204.507 165.088Z" fill="#F4F4F4"/>
<path d="M128.24 166.688C126.774 167.754 126.374 168.688 127.44 168.688C130.374 168.688 131.04 168.421 130.774 167.221C130.24 165.488 132.24 165.754 134.374 167.621C135.974 169.088 135.974 168.954 134.507 166.954C132.374 164.154 131.574 164.154 128.24 166.688Z" fill="#F4F4F4"/>
<path d="M45.4402 168.688C40.2402 170.954 39.0402 172.421 39.5736 175.621C39.5736 176.288 39.1736 176.688 38.3736 176.688C37.7069 176.688 37.0402 177.221 37.0402 178.021C37.0402 179.354 53.7069 184.688 58.2402 184.688C59.8402 184.688 60.7736 184.154 60.3736 183.354C59.9736 182.554 58.3736 182.021 56.9069 182.021C55.4402 182.021 53.9736 181.221 53.5736 180.154C53.1736 179.088 51.9736 178.554 50.9069 178.954C49.8402 179.354 49.0402 178.954 49.0402 178.288C49.0402 174.821 54.6402 175.621 65.5736 180.688C71.8402 183.621 77.0402 186.688 77.0402 187.354C77.0402 188.154 78.1069 188.688 79.3069 188.688C80.9069 188.688 79.9736 187.354 76.3736 184.421C73.4402 182.021 68.3736 177.488 65.1736 174.421C61.8402 171.221 58.1069 168.688 56.9069 168.688C55.5736 168.688 54.1069 168.021 53.7069 167.354C52.6402 165.621 52.1069 165.754 45.4402 168.688Z" fill="#F4F4F4"/>
<path d="M138.907 172.954C138.374 173.888 138.374 174.288 139.04 173.754C139.574 173.221 141.307 173.488 142.907 174.288C145.44 175.621 145.574 175.621 143.84 173.621C141.707 170.954 140.24 170.821 138.907 172.954Z" fill="#F4F4F4"/>
<path d="M105.44 180.421C97.8402 183.088 92.3736 185.621 93.0402 186.021C93.8402 186.554 94.1069 187.888 93.5736 189.088C93.0402 190.554 93.4402 191.354 94.9069 191.488C96.1069 191.621 97.8402 191.754 98.7736 191.888C99.5736 191.888 100.374 192.954 100.374 194.021C100.374 195.488 102.507 196.288 107.707 196.821C111.707 197.354 115.307 197.354 115.707 196.821C116.107 196.288 117.44 195.488 118.774 194.954C120.107 194.421 120.774 193.354 120.24 192.554C118.774 190.154 118.507 183.088 119.84 179.754C120.374 178.154 120.507 176.554 119.974 176.288C119.44 175.888 112.907 177.888 105.44 180.421ZM107.707 183.354C105.84 183.888 103.174 184.421 101.707 184.421C99.5736 184.421 99.7069 184.154 102.374 183.354C104.24 182.821 106.907 182.288 108.374 182.288C110.507 182.288 110.374 182.554 107.707 183.354ZM113.707 186.021C113.307 186.688 111.974 187.354 110.907 187.354C109.84 187.354 109.04 186.688 109.04 186.021C109.04 185.221 110.24 184.688 111.84 184.688C113.307 184.688 114.107 185.221 113.707 186.021ZM102.774 189.621C101.04 189.888 98.3736 189.888 96.7736 189.621C95.0402 189.354 96.3736 189.088 99.7069 189.088C103.04 189.088 104.374 189.354 102.774 189.621Z" fill="#F4F4F4"/>
<path d="M161.04 181.888C161.04 182.688 159.974 183.354 158.774 183.088C157.174 182.821 156.507 183.488 156.774 184.954C157.04 186.554 156.374 186.954 154.374 186.421C151.574 185.621 150.64 187.888 153.174 189.488C153.974 189.888 154.374 191.354 153.974 192.688C153.574 194.154 154.107 195.488 155.174 195.888C156.24 196.288 157.04 196.021 157.04 195.221C157.04 194.421 157.707 194.288 158.374 194.688C159.174 195.088 159.707 194.288 159.707 192.954C159.707 190.954 160.374 190.421 162.374 190.954C164.507 191.488 164.907 191.221 164.24 189.488C163.84 188.288 162.64 187.354 161.574 187.354C159.307 187.354 159.174 185.754 161.307 183.621C162.107 182.821 162.507 181.621 161.974 181.088C161.44 180.688 161.04 180.954 161.04 181.888Z" fill="#F4F4F4"/>
<path d="M195.707 182.021C195.707 182.821 196.64 183.354 197.707 183.354C198.774 183.354 199.707 183.088 199.707 182.821C199.707 182.554 198.774 182.021 197.707 181.488C196.64 181.088 195.707 181.354 195.707 182.021Z" fill="#F4F4F4"/>
<path d="M85.0402 185.621C85.0402 187.354 85.7069 188.688 86.3736 188.688C88.1069 188.688 88.1069 187.221 86.3736 184.688C85.3069 183.088 85.0402 183.221 85.0402 185.621Z" fill="#F4F4F4"/>
<path d="M196.374 186.021C196.907 186.821 197.84 187.088 198.507 186.688C200.374 185.488 199.974 184.688 197.574 184.688C196.507 184.688 195.974 185.354 196.374 186.021Z" fill="#F4F4F4"/>
<path d="M45.0402 189.621C45.0402 190.288 47.1736 190.821 49.7069 190.954C52.2402 191.221 54.7736 191.488 55.3069 191.488C58.3736 192.021 61.0402 191.221 60.3736 190.021C59.4402 188.554 45.0402 188.154 45.0402 189.621Z" fill="#F4F4F4"/>
<path d="M73.4402 192.021C75.5735 193.221 78.3735 193.754 79.8402 193.354C83.4402 192.154 82.7735 191.754 75.7069 190.821L69.7069 190.021L73.4402 192.021Z" fill="#F4F4F4"/>
<path d="M86.3736 193.221C86.3736 194.421 87.3069 195.354 88.5069 195.354C90.7736 195.354 90.3736 192.421 87.9736 191.621C87.0402 191.354 86.3736 192.021 86.3736 193.221Z" fill="#F4F4F4"/>
<path d="M136.107 194.421C135.84 194.954 134.907 194.954 134.107 194.554C133.174 194.021 133.04 194.288 133.574 195.088C134.107 196.021 133.707 196.688 132.24 196.688C131.04 196.688 127.84 197.354 125.174 198.154C120.64 199.488 120.24 200.021 120.107 204.688C119.974 208.954 120.374 209.621 122.24 208.954C124.107 208.288 124.107 208.421 122.374 210.688C119.84 213.754 134.64 205.888 140.374 201.088L144.374 197.754L138.374 200.688C135.04 202.421 130.774 204.554 128.774 205.621C126.64 206.688 125.04 206.954 125.04 206.288C125.04 205.621 129.174 202.954 134.374 200.554C144.774 195.488 147.174 192.688 140.907 193.088C138.64 193.221 136.507 193.754 136.107 194.421Z" fill="#F4F4F4"/>
<path d="M80.3736 195.488C79.8402 196.288 79.8402 197.221 80.2402 197.621C80.6402 198.154 81.0402 197.754 81.0402 196.821C81.0402 195.888 81.7069 195.621 82.6402 196.154C83.5736 196.688 83.7069 196.554 83.1736 195.621C81.9736 193.621 81.4402 193.621 80.3736 195.488Z" fill="#F4F4F4"/>
<path d="M45.7069 198.021C46.1069 198.688 47.7069 199.354 49.1736 199.354C50.5069 199.354 51.7069 198.688 51.7069 198.021C51.7069 197.221 50.1069 196.688 48.2402 196.688C46.3736 196.688 45.1736 197.221 45.7069 198.021Z" fill="#F4F4F4"/>
<path d="M85.1736 197.621C85.0402 198.421 84.6402 200.288 84.2402 201.621C83.5736 203.888 83.5736 203.888 85.0402 201.621C85.8402 200.288 86.2402 198.555 85.8402 197.621C85.4402 196.421 85.1736 196.421 85.1736 197.621Z" fill="#F4F4F4"/>
<path d="M92.7735 197.488C93.5735 197.888 94.3735 199.088 94.3735 200.021C94.3735 201.088 94.9069 202.288 95.7069 202.688C96.5069 203.088 96.6402 202.554 96.2402 201.354C95.7069 199.888 95.9735 199.488 97.4402 200.154C98.6402 200.554 99.8402 201.754 100.24 202.821C100.64 203.888 101.84 204.688 102.774 204.688C105.174 204.688 108.374 208.421 107.174 209.754C106.64 210.288 105.307 209.621 104.374 208.154C103.307 206.821 101.974 206.154 101.307 206.554C100.507 206.954 99.5735 206.554 99.3069 205.754C98.7735 204.688 98.5069 204.821 98.5069 206.288C98.3735 207.488 99.0402 208.954 99.7069 209.354C100.507 209.754 101.04 209.488 101.04 208.688C101.04 207.888 101.707 207.621 102.374 208.021C103.174 208.554 103.44 209.354 103.04 210.021C102.64 210.554 103.44 211.888 104.64 212.821C106.507 214.421 106.774 214.421 105.707 212.688C104.907 211.088 105.04 210.954 106.507 212.288C107.44 213.221 109.04 214.021 110.107 214.021C111.707 214.021 111.707 213.621 110.374 212.021C109.44 210.821 109.04 209.621 109.574 209.088C109.974 208.688 110.374 208.821 110.374 209.621C110.374 211.621 115.574 212.688 116.64 211.088C117.04 210.154 116.774 210.021 115.974 210.554C115.04 211.088 114.374 210.954 114.374 210.154C114.374 208.288 98.6402 198.154 94.5069 197.354C92.6402 196.954 91.8402 197.088 92.7735 197.488Z" fill="#F4F4F4"/>
<path d="M187.707 197.621C188.774 198.021 191.174 199.621 192.907 201.221C194.64 202.688 195.707 203.221 195.04 202.154C194.24 200.688 194.64 200.421 196.774 200.954C198.374 201.488 199.707 201.221 199.707 200.688C199.707 199.354 191.04 196.688 187.707 196.821C185.974 196.821 185.974 196.954 187.707 197.621Z" fill="#F4F4F4"/>
<path d="M67.9736 202.021C70.6402 204.154 70.5069 204.154 65.1736 206.688C60.1069 208.954 57.9736 211.354 61.0402 211.354C61.8402 211.354 62.3736 210.821 62.3736 210.288C62.3736 209.088 70.2402 205.488 72.6402 205.621C73.4402 205.621 73.8402 204.821 73.3069 203.621C72.7736 202.021 73.1736 201.754 74.9069 202.421C76.5069 203.088 77.0402 202.821 76.7736 201.754C76.3736 200.688 73.8402 200.021 70.7736 199.888C65.5736 199.888 65.4402 199.888 67.9736 202.021Z" fill="#F4F4F4"/>
<path d="M90.6402 201.621C93.9736 208.688 96.3736 212.688 97.3069 212.688C97.8402 212.688 98.3736 212.421 98.3736 212.021C98.3736 210.821 91.7069 200.688 90.9069 200.688C90.5069 200.688 90.3736 201.088 90.6402 201.621Z" fill="#F4F4F4"/>
<path d="M58.7736 204.288C57.0402 204.554 55.7069 205.488 55.7069 206.154C55.7069 207.888 57.4402 207.621 60.5069 205.354C61.8402 204.288 62.7736 203.488 62.3736 203.621C61.9736 203.621 60.3736 204.021 58.7736 204.288Z" fill="#F4F4F4"/>
<path d="M180.64 208.954C187.84 214.421 194.64 217.621 195.307 215.621C195.707 214.821 197.04 214.021 198.374 214.021C199.707 214.021 201.174 213.088 201.574 211.888C202.64 209.221 202.64 208.688 201.44 208.954C200.774 209.088 199.04 208.554 197.44 207.621C195.44 206.554 194.24 206.421 193.707 207.354C193.04 208.421 192.24 208.288 190.907 207.221C189.44 206.021 189.04 206.021 189.04 207.221C189.04 208.154 187.974 208.554 186.774 208.154C185.44 207.754 182.64 207.088 180.374 206.554L176.374 205.754L180.64 208.954ZM196.774 210.688C196.374 211.088 195.574 210.421 195.174 209.088C194.374 207.221 194.507 207.088 195.84 208.288C196.774 209.221 197.174 210.288 196.774 210.688Z" fill="#F4F4F4"/>
<path d="M85.0402 216.288C85.0402 221.088 85.3069 224.821 85.5736 224.554C85.8402 224.288 86.1069 223.621 85.9736 223.221C85.8402 222.821 86.5069 221.488 87.4402 220.421C88.5069 218.954 88.7736 216.554 88.2402 212.821C86.9069 204.421 85.0402 206.288 85.0402 216.288Z" fill="#F4F4F4"/>
<path d="M137.307 216.688C134.24 221.088 131.707 225.488 131.84 226.421C131.84 227.354 132.374 226.688 133.04 224.954C134.64 221.221 137.04 221.088 137.04 224.821C137.04 227.221 137.307 227.354 139.04 225.488C140.107 224.421 141.04 222.554 141.04 221.221C141.04 219.488 140.64 219.354 139.04 220.688C136.107 223.088 136.64 221.354 140.507 215.354C142.507 212.421 143.84 209.621 143.44 209.354C143.04 208.954 140.24 212.288 137.307 216.688Z" fill="#F4F4F4"/>
<path d="M158.64 211.754C158.507 213.888 157.84 215.088 157.04 214.688C156.374 214.288 155.707 215.088 155.707 216.554C155.707 218.154 155.04 219.354 154.24 219.354C153.574 219.354 153.307 218.554 153.84 217.621C154.507 216.554 154.374 216.421 153.307 217.354C152.374 218.154 151.44 222.421 151.174 226.954C150.64 233.221 150.907 235.354 152.507 235.888C153.707 236.288 154.374 235.754 154.374 234.288C154.507 232.421 154.907 232.554 157.04 235.088L159.574 238.154L158.774 233.221C158.107 229.488 158.374 228.554 159.574 229.221C160.507 229.888 160.907 231.088 160.507 232.154C160.107 233.221 160.374 234.021 161.174 234.021C161.974 234.021 162.24 234.554 161.707 235.221C161.307 235.888 161.574 236.954 162.374 237.354C163.307 237.888 163.707 236.688 163.44 234.154C163.307 231.888 162.774 230.021 162.24 230.021C161.707 230.021 161.44 227.221 161.84 223.888C162.24 220.288 161.974 218.154 161.174 218.688C160.374 219.088 159.574 216.954 159.307 213.754C159.04 210.288 158.774 209.488 158.64 211.754ZM158.374 226.021C158.374 226.688 157.707 227.354 156.907 227.354C156.24 227.354 155.974 226.688 156.374 226.021C156.774 225.221 157.44 224.688 157.84 224.688C158.107 224.688 158.374 225.221 158.374 226.021Z" fill="#F4F4F4"/>
<path d="M169.04 209.754C169.04 212.154 172.107 218.021 173.307 218.021C173.974 218.021 173.44 216.021 172.24 213.621C169.574 208.421 169.04 207.754 169.04 209.754Z" fill="#F4F4F4"/>
<path d="M49.7069 211.754C51.1736 212.554 51.4402 213.354 50.6402 213.888C49.7069 214.421 49.9736 215.621 51.3069 217.354C53.3069 219.888 53.3069 219.888 52.5069 217.488C51.9736 216.021 52.5069 214.021 53.7069 212.688C55.5736 210.688 55.4402 210.421 51.5736 210.421C48.3736 210.421 47.9736 210.688 49.7069 211.754Z" fill="#F4F4F4"/>
<path d="M77.9735 212.288C77.5735 212.821 76.6402 216.021 75.7069 219.354C74.9069 222.688 72.6402 227.221 70.9069 229.621C66.9069 234.954 66.9069 236.421 71.0402 236.154C73.7069 236.021 74.3735 235.221 75.0402 230.688C75.5735 227.754 76.7735 222.421 77.8402 218.821C79.5735 212.821 79.5735 209.621 77.9735 212.288Z" fill="#F4F4F4"/>
<path d="M123.707 216.021C122.64 217.221 122.64 218.021 123.44 218.021C125.04 218.021 126.907 215.488 125.974 214.554C125.707 214.288 124.64 214.821 123.707 216.021Z" fill="#F4F4F4"/>
<path d="M107.707 216.688C107.707 217.354 108.374 218.021 109.174 218.021C109.84 218.021 110.107 217.354 109.707 216.688C109.307 215.888 108.64 215.354 108.24 215.354C107.974 215.354 107.707 215.888 107.707 216.688Z" fill="#F4F4F4"/>
<path d="M60.3736 219.354C59.0402 220.821 58.5069 222.021 59.1736 222.021C59.8402 222.021 61.1736 220.821 62.1069 219.354C63.0402 217.888 63.5736 216.688 63.3069 216.688C63.0402 216.688 61.7069 217.888 60.3736 219.354Z" fill="#F4F4F4"/>
<path d="M101.84 219.754C102.24 221.088 103.04 221.754 103.44 221.354C103.84 220.954 103.44 219.888 102.507 218.954C101.174 217.754 101.04 217.888 101.84 219.754Z" fill="#F4F4F4"/>
<path d="M183.707 219.888C183.707 220.154 184.774 221.221 186.107 222.154C188.107 223.888 188.24 223.754 186.507 221.621C184.774 219.488 183.707 218.821 183.707 219.888Z" fill="#F4F4F4"/>
<path d="M188.374 220.688C188.774 221.354 189.44 222.021 189.84 222.021C190.107 222.021 190.374 221.354 190.374 220.688C190.374 219.888 189.707 219.354 188.907 219.354C188.24 219.354 187.974 219.888 188.374 220.688Z" fill="#F4F4F4"/>
<path d="M144.507 222.954C144.24 224.288 143.574 226.554 143.174 228.154C142.507 230.288 143.174 231.221 145.707 232.421C148.24 233.621 149.04 233.621 149.04 232.288C149.04 231.488 149.44 229.221 149.974 227.488C150.64 224.688 150.374 224.421 147.84 225.088C145.44 225.621 145.04 225.354 145.707 223.221C146.24 221.888 146.24 220.688 145.84 220.688C145.574 220.688 144.907 221.754 144.507 222.954ZM146.907 229.354C147.307 230.421 147.04 231.354 146.374 231.354C145.574 231.354 145.04 230.421 145.04 229.354C145.04 228.288 145.307 227.354 145.574 227.354C145.84 227.354 146.374 228.288 146.907 229.354Z" fill="#F4F4F4"/>
<path d="M77.7069 227.354C77.1736 230.421 77.0402 233.088 77.4402 233.488C77.7069 233.888 78.3736 231.621 78.9069 228.554C79.4402 225.488 79.5736 222.688 79.1736 222.421C78.9069 222.154 78.2402 224.288 77.7069 227.354Z" fill="#F4F4F4"/>
<rect x="150" y="63" width="315" height="85" fill="white"/>
<path d="M156.636 128V81.4545H172.909C176.152 81.4545 178.826 82.0152 180.932 83.1364C183.038 84.2424 184.606 85.7348 185.636 87.6136C186.667 89.4773 187.182 91.5455 187.182 93.8182C187.182 95.8182 186.826 97.4697 186.114 98.7727C185.417 100.076 184.492 101.106 183.341 101.864C182.205 102.621 180.97 103.182 179.636 103.545V104C181.061 104.091 182.492 104.591 183.932 105.5C185.371 106.409 186.576 107.712 187.545 109.409C188.515 111.106 189 113.182 189 115.636C189 117.97 188.47 120.068 187.409 121.932C186.348 123.795 184.674 125.273 182.386 126.364C180.098 127.455 177.121 128 173.455 128H156.636ZM162.273 123H173.455C177.136 123 179.75 122.288 181.295 120.864C182.856 119.424 183.636 117.682 183.636 115.636C183.636 114.061 183.235 112.606 182.432 111.273C181.629 109.924 180.485 108.848 179 108.045C177.515 107.227 175.758 106.818 173.727 106.818H162.273V123ZM162.273 101.909H172.727C174.424 101.909 175.955 101.576 177.318 100.909C178.697 100.242 179.788 99.303 180.591 98.0909C181.409 96.8788 181.818 95.4545 181.818 93.8182C181.818 91.7727 181.106 90.0379 179.682 88.6136C178.258 87.1742 176 86.4545 172.909 86.4545H162.273V101.909ZM198.261 81.4545H204.989L220.807 120.091H221.352L237.17 81.4545H243.898V128H238.625V92.6364H238.17L223.625 128H218.534L203.989 92.6364H203.534V128H198.261V81.4545ZM292.653 96H287.017C286.684 94.3788 286.1 92.9545 285.267 91.7273C284.449 90.5 283.449 89.4697 282.267 88.6364C281.1 87.7879 279.805 87.1515 278.381 86.7273C276.956 86.303 275.472 86.0909 273.926 86.0909C271.108 86.0909 268.555 86.803 266.267 88.2273C263.994 89.6515 262.184 91.75 260.835 94.5227C259.502 97.2955 258.835 100.697 258.835 104.727C258.835 108.758 259.502 112.159 260.835 114.932C262.184 117.705 263.994 119.803 266.267 121.227C268.555 122.652 271.108 123.364 273.926 123.364C275.472 123.364 276.956 123.152 278.381 122.727C279.805 122.303 281.1 121.674 282.267 120.841C283.449 119.992 284.449 118.955 285.267 117.727C286.1 116.485 286.684 115.061 287.017 113.455H292.653C292.229 115.833 291.456 117.962 290.335 119.841C289.214 121.72 287.82 123.318 286.153 124.636C284.487 125.939 282.616 126.932 280.54 127.614C278.479 128.295 276.275 128.636 273.926 128.636C269.956 128.636 266.426 127.667 263.335 125.727C260.244 123.788 257.813 121.03 256.04 117.455C254.267 113.879 253.381 109.636 253.381 104.727C253.381 99.8182 254.267 95.5758 256.04 92C257.813 88.4242 260.244 85.6667 263.335 83.7273C266.426 81.7879 269.956 80.8182 273.926 80.8182C276.275 80.8182 278.479 81.1591 280.54 81.8409C282.616 82.5227 284.487 83.5227 286.153 84.8409C287.82 86.1439 289.214 87.7348 290.335 89.6136C291.456 91.4773 292.229 93.6061 292.653 96Z" fill="#F4F4F4"/>
<path d="M240.636 154.455H247.364L263.182 193.091H263.727L279.545 154.455H286.273V201H281V165.636H280.545L266 201H260.909L246.364 165.636H245.909V201H240.636V154.455ZM325.665 154.455V159.455H303.21V201H297.574V154.455H325.665ZM336.841 201.636V196.364H339.75C340.871 196.364 341.811 196.144 342.568 195.705C343.341 195.265 343.977 194.697 344.477 194C344.992 193.303 345.417 192.576 345.75 191.818L346.477 190.091L330.386 154.455H336.477L349.295 183.364L361.023 154.455H367.023L350.932 193.455C350.295 194.909 349.568 196.258 348.75 197.5C347.947 198.742 346.848 199.742 345.455 200.5C344.076 201.258 342.205 201.636 339.841 201.636H336.841Z" fill="#F4F4F4"/>
</svg>
