<svg width="526" height="244" viewBox="0 0 526 244" fill="none" xmlns="http://www.w3.org/2000/svg">
<path d="M128.5 232V108.5C128.5 105 130.5 102.5 135.75 102.5C141 102.5 142.803 104.294 143 108.5V232" stroke="white" stroke-width="3"/>
<path d="M158.5 232V108.5C158.5 105 160.5 102.5 165.75 102.5C171 102.5 172.803 104.294 173 108.5V232" stroke="white" stroke-width="3"/>
<path d="M189.5 232V108.5C189.5 105 191.5 102.5 196.75 102.5C202 102.5 203.803 104.294 204 108.5V232" stroke="white" stroke-width="3"/>
<path d="M219.5 232V108.5C219.5 105 221.5 102.5 226.75 102.5C232 102.5 233.803 104.294 234 108.5V232" stroke="white" stroke-width="3"/>
<path d="M249.5 232V108.5C249.5 105 251.5 102.5 256.75 102.5C262 102.5 263.803 104.294 264 108.5V232" stroke="white" stroke-width="3"/>
<path d="M280.5 232V108.5C280.5 105 282.5 102.5 287.75 102.5C293 102.5 294.803 104.294 295 108.5V232M269.5 101C269.5 97.5 270.25 94.5 275.5 94.5C280.75 94.5 281.803 95.2937 282 99.5M258.5 92C258.5 88.5 259.25 85.5 264.5 85.5C269.75 85.5 270.803 86.2937 271 90.5M245.5 83C245.5 79.5 246.25 76.5 251.5 76.5C256.75 76.5 257.803 77.2937 258 81.5M239.5 101C239.5 97.5 240.25 94.5 245.5 94.5C250.75 94.5 251.803 95.2937 252 99.5M227.5 92C227.5 88.5 228.25 85.5 233.5 85.5C238.75 85.5 239.803 86.2937 240 90.5M232.5 73C232.5 69.5 233.25 66.5 238.5 66.5C243.75 66.5 244.803 67.2937 245 71.5M215.5 82C215.5 78.5 216.25 75.5 221.5 75.5C226.75 75.5 227.803 76.2937 228 80.5M215.5 94.5C220.75 94.5 221.803 95.2937 222 99.5M222.5 64C222.5 60.5 223.25 57.5 228.5 57.5C233.75 57.5 234.803 58.2937 235 62.5M217.5 49.5C222.75 49.5 223.803 50.2937 224 54.5M251.5 65C251.5 61.5 252.25 58.5 257.5 58.5C262.75 58.5 263.803 59.2937 264 63.5M241.5 56C241.5 52.5 242.25 49.5 247.5 49.5C252.75 49.5 253.803 50.2937 254 54.5M230.5 46C230.5 42.5 231.25 39.5 236.5 39.5C241.75 39.5 242.803 40.2937 243 44.5M281.5 63C281.5 59.5 282.25 56.5 287.5 56.5C292.75 56.5 293.803 57.2937 294 61.5M271.5 54C271.5 50.5 272.25 47.5 277.5 47.5C282.75 47.5 283.803 48.2937 284 52.5M260.5 46C260.5 42.5 261.25 39.5 266.5 39.5C271.75 39.5 272.803 40.2937 273 44.5M311.5 63C311.5 59.5 312.25 56.5 317.5 56.5C322.75 56.5 323.803 57.2937 324 61.5M301.5 54C301.5 50.5 302.25 47.5 307.5 47.5C312.75 47.5 313.803 48.2937 314 52.5M290.5 46C290.5 42.5 291.25 39.5 296.5 39.5C301.75 39.5 302.803 40.2937 303 44.5M342.5 63C342.5 59.5 343.25 56.5 348.5 56.5C353.75 56.5 354.803 57.2937 355 61.5M332.5 54C332.5 50.5 333.25 47.5 338.5 47.5C343.75 47.5 344.803 48.2937 345 52.5M321.5 46C321.5 42.5 322.25 39.5 327.5 39.5C332.75 39.5 333.803 40.2937 334 44.5M372.5 63C372.5 59.5 373.25 56.5 378.5 56.5C383.75 56.5 384.803 57.2937 385 61.5M362.5 54C362.5 50.5 363.25 47.5 368.5 47.5C373.75 47.5 374.803 48.2937 375 52.5M351.5 46C351.5 42.5 352.25 39.5 357.5 39.5C362.75 39.5 363.803 40.2937 364 44.5M403.5 63C403.5 59.5 404.25 56.5 409.5 56.5C414.75 56.5 415.803 57.2937 416 61.5M393.5 54C393.5 50.5 394.25 47.5 399.5 47.5C404.75 47.5 405.803 48.2937 406 52.5M382.5 46C382.5 42.5 383.25 39.5 388.5 39.5C393.75 39.5 394.803 40.2937 395 44.5M433.5 63C433.5 59.5 434.25 56.5 439.5 56.5C444.75 56.5 445.803 57.2937 446 61.5M423.5 54C423.5 50.5 424.25 47.5 429.5 47.5C434.75 47.5 435.803 48.2937 436 52.5M412.5 46C412.5 42.5 413.25 39.5 418.5 39.5C423.75 39.5 424.803 40.2937 425 44.5M437.5 89C437.5 85.5 438.25 82.5 443.5 82.5C448.75 82.5 449.803 83.2937 450 87.5M427.5 80C427.5 76.5 428.25 73.5 433.5 73.5C438.75 73.5 439.803 74.2937 440 78.5M416.5 72C416.5 68.5 417.25 65.5 422.5 65.5C427.75 65.5 428.803 66.2937 429 70.5M471.5 89C471.5 85.5 472.25 82.5 477.5 82.5C482.75 82.5 483.803 83.2937 484 87.5M457.5 80C457.5 76.5 458.25 73.5 463.5 73.5C468.75 73.5 469.803 74.2937 470 78.5M446.5 72C446.5 68.5 447.25 65.5 452.5 65.5C457.75 65.5 458.803 66.2937 459 70.5M380.5 90C380.5 86.5 381.25 83.5 386.5 83.5C391.75 83.5 392.803 84.2937 393 88.5M366.5 80C366.5 76.5 367.25 73.5 372.5 73.5C377.75 73.5 378.803 74.2937 379 78.5M355.5 72C355.5 68.5 356.25 65.5 361.5 65.5C366.75 65.5 367.803 66.2937 368 70.5M411.5 90C411.5 86.5 412.25 83.5 417.5 83.5C422.75 83.5 423.803 84.2937 424 88.5M398.5 80C398.5 76.5 399.25 73.5 404.5 73.5C409.75 73.5 410.803 74.2937 411 78.5M385.5 72C385.5 68.5 386.25 65.5 391.5 65.5C396.75 65.5 397.803 66.2937 398 70.5M422.5 99C422.5 95.5 423.25 92.5 428.5 92.5C433.75 92.5 434.803 93.2937 435 97.5M452.5 99C452.5 95.5 453.25 92.5 458.5 92.5C463.75 92.5 464.803 93.2937 465 97.5M391.5 99C391.5 95.5 392.25 92.5 397.5 92.5C402.75 92.5 403.803 93.2937 404 97.5M361.5 99C361.5 95.5 362.25 92.5 367.5 92.5C372.75 92.5 373.803 93.2937 374 97.5M330.5 99C330.5 95.5 331.25 92.5 336.5 92.5C341.75 92.5 342.803 93.2937 343 97.5M217.5 37C217.5 33.5 218.25 30.5 223.5 30.5C228.75 30.5 229.803 31.2937 230 35.5M213 19.5C218.25 19.5 216.803 21.2937 217 25.5M223.5 16C223.5 12.5 224.25 9.5 229.5 9.5C234.75 9.5 235.803 10.2937 236 14.5M235.5 26C235.5 22.5 236.25 19.5 241.5 19.5C246.75 19.5 247.803 20.2937 248 24.5M247.5 36C247.5 32.5 248.25 29.5 253.5 29.5C258.75 29.5 259.803 30.2937 260 34.5M253.5 16C253.5 12.5 254.25 9.5 259.5 9.5C264.75 9.5 265.803 10.2937 266 14.5M265.5 26C265.5 22.5 266.25 19.5 271.5 19.5C276.75 19.5 277.803 20.2937 278 24.5M277.5 36C277.5 32.5 278.25 29.5 283.5 29.5C288.75 29.5 289.803 30.2937 290 34.5M284.5 16C284.5 12.5 285.25 9.5 290.5 9.5C295.75 9.5 296.803 10.2937 297 14.5M296.5 26C296.5 22.5 297.25 19.5 302.5 19.5C307.75 19.5 308.803 20.2937 309 24.5M308.5 36C308.5 32.5 309.25 29.5 314.5 29.5C319.75 29.5 320.803 30.2937 321 34.5M314.5 16C314.5 12.5 315.25 9.5 320.5 9.5C325.75 9.5 326.803 10.2937 327 14.5M326.5 26C326.5 22.5 327.25 19.5 332.5 19.5C337.75 19.5 338.803 20.2937 339 24.5M338.5 36C338.5 32.5 339.25 29.5 344.5 29.5C349.75 29.5 350.803 30.2937 351 34.5M345.5 16C345.5 12.5 346.25 9.5 351.5 9.5C356.75 9.5 357.803 10.2937 358 14.5M357.5 26C357.5 22.5 358.25 19.5 363.5 19.5C368.75 19.5 369.803 20.2937 370 24.5M369.5 36C369.5 32.5 370.25 29.5 375.5 29.5C380.75 29.5 381.803 30.2937 382 34.5M376.5 16C376.5 12.5 377.25 9.5 382.5 9.5C387.75 9.5 388.803 10.2937 389 14.5M388.5 26C388.5 22.5 389.25 19.5 394.5 19.5C399.75 19.5 400.803 20.2937 401 24.5M400.5 36C400.5 32.5 401.25 29.5 406.5 29.5C411.75 29.5 412.803 30.2937 413 34.5M302 90.5C301.803 86.2937 300.75 85.5 295.5 85.5C290.25 85.5 289.5 88.5 289.5 92M276.5 83C276.5 79.5 277.25 76.5 282.5 76.5C287.75 76.5 288.803 77.2937 289 81.5M263.5 73C263.5 69.5 264.25 66.5 269.5 66.5C274.75 66.5 275.803 67.2937 276 71.5M332 88.5C331.803 84.2937 330.75 83.5 325.5 83.5C320.25 83.5 319.5 86.5 319.5 90M306.5 81C306.5 77.5 307.25 74.5 312.5 74.5C317.75 74.5 318.803 75.2937 319 79.5M293.5 71C293.5 67.5 294.25 64.5 299.5 64.5C304.75 64.5 305.803 65.2937 306 69.5M363 88.5C362.803 84.2937 361.75 83.5 356.5 83.5C351.25 83.5 350.5 86.5 350.5 90M337.5 81C337.5 77.5 338.25 74.5 343.5 74.5C348.75 74.5 349.803 75.2937 350 79.5M324.5 71C324.5 67.5 325.25 64.5 330.5 64.5C335.75 64.5 336.803 65.2937 337 69.5M300.5 101C300.5 97.5 301.25 94.5 306.5 94.5C311.75 94.5 312.803 95.2937 313 99.5M483.5 99C483.5 95.5 484.25 92.5 489.5 92.5C494.75 92.5 495.803 93.2937 496 97.5" stroke="white" stroke-width="3"/>
<path d="M310.5 232V108.5C310.5 105 312.5 102.5 317.75 102.5C323 102.5 324.803 104.294 325 108.5V154" stroke="white" stroke-width="3"/>
<path d="M340.5 154V108.5C340.5 105 342.5 102.5 347.75 102.5C353 102.5 354.803 104.294 355 108.5V154" stroke="white" stroke-width="3"/>
<path d="M371.5 154V108.5C371.5 105 373.5 102.5 378.75 102.5C384 102.5 385.803 104.294 386 108.5V154" stroke="white" stroke-width="3"/>
<path d="M401.5 154V108C401.5 104.5 403.5 102.5 408.75 102.5C414 102.5 415.803 104.294 416 108.5V154" stroke="white" stroke-width="3"/>
<path d="M431.5 154V108.5C431.5 105 433.5 102.5 438.75 102.5C444 102.5 445.803 104.294 446 108.5V154" stroke="white" stroke-width="3"/>
<path d="M462.5 154V108.5C462.5 105 464.5 102.5 469.75 102.5C475 102.5 476.803 104.294 477 108.5V154" stroke="white" stroke-width="3"/>
<path d="M493.5 154L493.5 108.5C493.5 105 495.5 102.5 500.75 102.5C506 102.5 507.803 104.294 508 108.5V154" stroke="white" stroke-width="3"/>
<path d="M128.5 232V108.5C128.5 105 130.5 102.5 135.75 102.5C141 102.5 142.803 104.294 143 108.5V232M117.5 225V102.5M105.5 216V102.5M92.5 206V102.5M69.5 188V102.5M80.5 197V102.5M58.5 180V102.5M46.5 170V102.5M9.5 144V102.5" stroke="white" stroke-width="3"/>
<path d="M21 152L21 102.5" stroke="white" stroke-width="3"/>
<path d="M34 162L34 102.5" stroke="white" stroke-width="3"/>
<path d="M8.36648 92V22.9091H32.5213C37.3343 22.9091 41.3039 23.7412 44.43 25.4055C47.5562 27.0473 49.884 29.2627 51.4134 32.0515C52.9427 34.8178 53.7074 37.8878 53.7074 41.2614C53.7074 44.2301 53.1789 46.6816 52.1218 48.6158C51.0872 50.55 49.7153 52.0793 48.006 53.2038C46.3192 54.3284 44.4863 55.1605 42.5071 55.7003V56.375C44.6212 56.5099 46.7466 57.2521 48.8832 58.6016C51.0198 59.951 52.8078 61.8852 54.2472 64.4041C55.6866 66.9231 56.4062 70.0043 56.4062 73.6477C56.4062 77.1113 55.6191 80.2262 54.0447 82.9925C52.4704 85.7589 49.9852 87.9517 46.5891 89.571C43.1931 91.1903 38.7737 92 33.331 92H8.36648ZM16.733 84.5781H33.331C38.7962 84.5781 42.6758 83.5211 44.9698 81.407C47.2863 79.2704 48.4446 76.6839 48.4446 73.6477C48.4446 71.3087 47.8486 69.1496 46.6566 67.1705C45.4646 65.1688 43.7666 63.572 41.5625 62.38C39.3584 61.1655 36.7495 60.5582 33.7358 60.5582H16.733V84.5781ZM16.733 53.2713H32.2514C34.7704 53.2713 37.0419 52.7765 39.0661 51.7869C41.1127 50.7973 42.732 49.4029 43.924 47.6037C45.1385 45.8044 45.7457 43.6903 45.7457 41.2614C45.7457 38.2251 44.6887 35.65 42.5746 33.5359C40.4605 31.3993 37.1094 30.331 32.5213 30.331H16.733V53.2713ZM70.1536 22.9091H80.1394L103.619 80.2599H104.429L127.909 22.9091H137.895V92H130.068V39.5071H129.394L107.803 92H100.246L78.655 39.5071H77.9803V92H70.1536V22.9091ZM210.267 44.5H201.9C201.406 42.0935 200.54 39.9794 199.303 38.1577C198.088 36.3359 196.604 34.8066 194.85 33.5696C193.118 32.3101 191.195 31.3655 189.081 30.7358C186.967 30.1061 184.763 29.7912 182.468 29.7912C178.285 29.7912 174.496 30.8482 171.1 32.9624C167.726 35.0765 165.038 38.1914 163.037 42.3072C161.057 46.4229 160.068 51.4721 160.068 57.4545C160.068 63.437 161.057 68.4861 163.037 72.6019C165.038 76.7177 167.726 79.8326 171.1 81.9467C174.496 84.0608 178.285 85.1179 182.468 85.1179C184.763 85.1179 186.967 84.803 189.081 84.1733C191.195 83.5436 193.118 82.6102 194.85 81.3732C196.604 80.1138 198.088 78.5732 199.303 76.7514C200.54 74.9072 201.406 72.7931 201.9 70.4091H210.267C209.637 73.9401 208.49 77.1 206.826 79.8888C205.161 82.6777 203.092 85.0504 200.618 87.0071C198.144 88.9413 195.367 90.4144 192.286 91.4265C189.227 92.4386 185.955 92.9446 182.468 92.9446C176.576 92.9446 171.336 91.5052 166.748 88.6264C162.16 85.7476 158.55 81.6544 155.918 76.3466C153.287 71.0388 151.971 64.7415 151.971 57.4545C151.971 50.1676 153.287 43.8703 155.918 38.5625C158.55 33.2547 162.16 29.1615 166.748 26.2827C171.336 23.4039 176.576 21.9645 182.468 21.9645C185.955 21.9645 189.227 22.4705 192.286 23.4826C195.367 24.4947 198.144 25.979 200.618 27.9357C203.092 29.8699 205.161 32.2314 206.826 35.0202C208.49 37.7866 209.637 40.9465 210.267 44.5Z" fill="white"/>
<path d="M322.366 161.909H332.352L355.832 219.26H356.642L380.122 161.909H390.108V231H382.281V178.507H381.607L360.016 231H352.459L330.868 178.507H330.193V231H322.366V161.909ZM448.581 161.909V169.331H415.25V231H406.883V161.909H448.581ZM465.17 231.945V224.118H469.488C471.153 224.118 472.547 223.792 473.672 223.14C474.819 222.487 475.763 221.644 476.505 220.609C477.27 219.575 477.9 218.495 478.395 217.371L479.474 214.807L455.589 161.909H464.63L483.657 204.821L501.065 161.909H509.971L486.086 219.8C485.142 221.959 484.062 223.96 482.848 225.805C481.656 227.649 480.025 229.133 477.956 230.258C475.909 231.382 473.132 231.945 469.623 231.945H465.17Z" fill="white"/>
</svg>
